  0
SECTION
  2
HEADER
  9
$ACADVER
  1
AC1009
  9
$FILLMODE
 70
 0
  9
$SPLFRAME
 70
 1
  9
$EXTMIN
 10
0
 20
0
 30
0.0
  9
$EXTMAX
 10
1058.33
 20
1058.33
 30
0.0
  0
ENDSEC
  0
SECTION
  2
TABLES
  0
TABLE
  2
LAYER
 70
1
  0
LAYER
  2
0
 70
     0
 62
     7
  6
CONTINUOUS
  0
ENDTAB
  0
ENDSEC
  0
SECTION
  2
ENTITIES
  0
LINE
  8
0
 62
     0
 10
110.902
 20
141.016
 30
0.0
 11
111.293
 21
141.001
 31
0.0
  0
LINE
  8
0
 62
     0
 10
111.293
 20
141.001
 30
0.0
 11
111.683
 21
140.954
 31
0.0
  0
LINE
  8
0
 62
     0
 10
111.683
 20
140.954
 30
0.0
 11
112.069
 21
140.878
 31
0.0
  0
LINE
  8
0
 62
     0
 10
112.069
 20
140.878
 30
0.0
 11
112.447
 21
140.772
 31
0.0
  0
LINE
  8
0
 62
     0
 10
112.447
 20
140.772
 30
0.0
 11
112.814
 21
140.636
 31
0.0
  0
LINE
  8
0
 62
     0
 10
112.814
 20
140.636
 30
0.0
 11
113.17
 21
140.472
 31
0.0
  0
LINE
  8
0
 62
     0
 10
113.17
 20
140.472
 30
0.0
 11
113.513
 21
140.28
 31
0.0
  0
LINE
  8
0
 62
     0
 10
113.513
 20
140.28
 30
0.0
 11
113.84
 21
140.061
 31
0.0
  0
LINE
  8
0
 62
     0
 10
113.84
 20
140.061
 30
0.0
 11
114.148
 21
139.819
 31
0.0
  0
LINE
  8
0
 62
     0
 10
114.148
 20
139.819
 30
0.0
 11
114.437
 21
139.551
 31
0.0
  0
LINE
  8
0
 62
     0
 10
114.437
 20
139.551
 30
0.0
 11
114.704
 21
139.263
 31
0.0
  0
LINE
  8
0
 62
     0
 10
114.704
 20
139.263
 30
0.0
 11
114.946
 21
138.955
 31
0.0
  0
LINE
  8
0
 62
     0
 10
114.946
 20
138.955
 30
0.0
 11
115.164
 21
138.629
 31
0.0
  0
LINE
  8
0
 62
     0
 10
115.164
 20
138.629
 30
0.0
 11
115.357
 21
138.286
 31
0.0
  0
LINE
  8
0
 62
     0
 10
115.357
 20
138.286
 30
0.0
 11
115.521
 21
137.929
 31
0.0
  0
LINE
  8
0
 62
     0
 10
115.521
 20
137.929
 30
0.0
 11
115.656
 21
137.561
 31
0.0
  0
LINE
  8
0
 62
     0
 10
115.656
 20
137.561
 30
0.0
 11
115.762
 21
137.184
 31
0.0
  0
LINE
  8
0
 62
     0
 10
115.762
 20
137.184
 30
0.0
 11
115.839
 21
136.799
 31
0.0
  0
LINE
  8
0
 62
     0
 10
115.839
 20
136.799
 30
0.0
 11
115.886
 21
136.409
 31
0.0
  0
LINE
  8
0
 62
     0
 10
115.886
 20
136.409
 30
0.0
 11
115.901
 21
136.015
 31
0.0
  0
LINE
  8
0
 62
     0
 10
115.901
 20
136.015
 30
0.0
 11
115.901
 21
5.20898
 31
0.0
  0
LINE
  8
0
 62
     0
 10
115.901
 20
5.20898
 30
0.0
 11
115.886
 21
4.81764
 31
0.0
  0
LINE
  8
0
 62
     0
 10
115.886
 20
4.81764
 30
0.0
 11
115.839
 21
4.42764
 31
0.0
  0
LINE
  8
0
 62
     0
 10
115.839
 20
4.42764
 30
0.0
 11
115.762
 21
4.04315
 31
0.0
  0
LINE
  8
0
 62
     0
 10
115.762
 20
4.04315
 30
0.0
 11
115.656
 21
3.6642
 31
0.0
  0
LINE
  8
0
 62
     0
 10
115.656
 20
3.6642
 30
0.0
 11
115.521
 21
3.29627
 31
0.0
  0
LINE
  8
0
 62
     0
 10
115.521
 20
3.29627
 30
0.0
 11
115.357
 21
2.94073
 31
0.0
  0
LINE
  8
0
 62
     0
 10
115.357
 20
2.94073
 30
0.0
 11
115.164
 21
2.5976
 31
0.0
  0
LINE
  8
0
 62
     0
 10
115.164
 20
2.5976
 30
0.0
 11
114.946
 21
2.27101
 31
0.0
  0
LINE
  8
0
 62
     0
 10
114.946
 20
2.27101
 30
0.0
 11
114.704
 21
1.96233
 31
0.0
  0
LINE
  8
0
 62
     0
 10
114.704
 20
1.96233
 30
0.0
 11
114.437
 21
1.67432
 31
0.0
  0
LINE
  8
0
 62
     0
 10
114.437
 20
1.67432
 30
0.0
 11
114.148
 21
1.40698
 31
0.0
  0
LINE
  8
0
 62
     0
 10
114.148
 20
1.40698
 30
0.0
 11
113.84
 21
1.16444
 31
0.0
  0
LINE
  8
0
 62
     0
 10
113.84
 20
1.16444
 30
0.0
 11
113.513
 21
0.946711
 31
0.0
  0
LINE
  8
0
 62
     0
 10
113.513
 20
0.946711
 30
0.0
 11
113.17
 21
0.755167
 31
0.0
  0
LINE
  8
0
 62
     0
 10
113.17
 20
0.755167
 30
0.0
 11
112.814
 21
0.591178
 31
0.0
  0
LINE
  8
0
 62
     0
 10
112.814
 20
0.591178
 30
0.0
 11
112.447
 21
0.454752
 31
0.0
  0
LINE
  8
0
 62
     0
 10
112.447
 20
0.454752
 30
0.0
 11
112.069
 21
0.348644
 31
0.0
  0
LINE
  8
0
 62
     0
 10
112.069
 20
0.348644
 30
0.0
 11
111.683
 21
0.271473
 31
0.0
  0
LINE
  8
0
 62
     0
 10
111.683
 20
0.271473
 30
0.0
 11
111.293
 21
0.225998
 31
0.0
  0
LINE
  8
0
 62
     0
 10
111.293
 20
0.225998
 30
0.0
 11
110.9
 21
0.209462
 31
0.0
  0
LINE
  8
0
 62
     0
 10
110.9
 20
0.209462
 30
0.0
 11
5.09598
 21
0.209462
 31
0.0
  0
LINE
  8
0
 62
     0
 10
5.09598
 20
0.209462
 30
0.0
 11
4.70186
 21
0.225998
 31
0.0
  0
LINE
  8
0
 62
     0
 10
4.70186
 20
0.225998
 30
0.0
 11
4.3119
 21
0.271473
 31
0.0
  0
LINE
  8
0
 62
     0
 10
4.3119
 20
0.271473
 30
0.0
 11
3.9274
 21
0.348644
 31
0.0
  0
LINE
  8
0
 62
     0
 10
3.9274
 20
0.348644
 30
0.0
 11
3.54983
 21
0.454752
 31
0.0
  0
LINE
  8
0
 62
     0
 10
3.54983
 20
0.454752
 30
0.0
 11
3.18189
 21
0.591178
 31
0.0
  0
LINE
  8
0
 62
     0
 10
3.18189
 20
0.591178
 30
0.0
 11
2.82498
 21
0.755167
 31
0.0
  0
LINE
  8
0
 62
     0
 10
2.82498
 20
0.755167
 30
0.0
 11
2.48185
 21
0.946711
 31
0.0
  0
LINE
  8
0
 62
     0
 10
2.48185
 20
0.946711
 30
0.0
 11
2.15663
 21
1.16444
 31
0.0
  0
LINE
  8
0
 62
     0
 10
2.15663
 20
1.16444
 30
0.0
 11
1.84795
 21
1.40698
 31
0.0
  0
LINE
  8
0
 62
     0
 10
1.84795
 20
1.40698
 30
0.0
 11
1.55994
 21
1.67432
 31
0.0
  0
LINE
  8
0
 62
     0
 10
1.55994
 20
1.67432
 30
0.0
 11
1.2926
 21
1.96233
 31
0.0
  0
LINE
  8
0
 62
     0
 10
1.2926
 20
1.96233
 30
0.0
 11
1.05006
 21
2.27101
 31
0.0
  0
LINE
  8
0
 62
     0
 10
1.05006
 20
2.27101
 30
0.0
 11
0.830957
 21
2.5976
 31
0.0
  0
LINE
  8
0
 62
     0
 10
0.830957
 20
2.5976
 30
0.0
 11
0.63941
 21
2.94073
 31
0.0
  0
LINE
  8
0
 62
     0
 10
0.63941
 20
2.94073
 30
0.0
 11
0.475424
 21
3.29627
 31
0.0
  0
LINE
  8
0
 62
     0
 10
0.475424
 20
3.29627
 30
0.0
 11
0.338998
 21
3.6642
 31
0.0
  0
LINE
  8
0
 62
     0
 10
0.338998
 20
3.6642
 30
0.0
 11
0.232888
 21
4.04315
 31
0.0
  0
LINE
  8
0
 62
     0
 10
0.232888
 20
4.04315
 30
0.0
 11
0.157097
 21
4.42764
 31
0.0
  0
LINE
  8
0
 62
     0
 10
0.157097
 20
4.42764
 30
0.0
 11
0.110243
 21
4.81764
 31
0.0
  0
LINE
  8
0
 62
     0
 10
0.110243
 20
4.81764
 30
0.0
 11
0.0950846
 21
5.21035
 31
0.0
  0
LINE
  8
0
 62
     0
 10
0.0950846
 20
5.21035
 30
0.0
 11
0.0950846
 21
136.015
 31
0.0
  0
LINE
  8
0
 62
     0
 10
0.0950846
 20
136.015
 30
0.0
 11
0.110243
 21
136.409
 31
0.0
  0
LINE
  8
0
 62
     0
 10
0.110243
 20
136.409
 30
0.0
 11
0.157097
 21
136.799
 31
0.0
  0
LINE
  8
0
 62
     0
 10
0.157097
 20
136.799
 30
0.0
 11
0.232888
 21
137.184
 31
0.0
  0
LINE
  8
0
 62
     0
 10
0.232888
 20
137.184
 30
0.0
 11
0.338998
 21
137.561
 31
0.0
  0
LINE
  8
0
 62
     0
 10
0.338998
 20
137.561
 30
0.0
 11
0.475424
 21
137.929
 31
0.0
  0
LINE
  8
0
 62
     0
 10
0.475424
 20
137.929
 30
0.0
 11
0.63941
 21
138.286
 31
0.0
  0
LINE
  8
0
 62
     0
 10
0.63941
 20
138.286
 30
0.0
 11
0.830957
 21
138.629
 31
0.0
  0
LINE
  8
0
 62
     0
 10
0.830957
 20
138.629
 30
0.0
 11
1.05006
 21
138.955
 31
0.0
  0
LINE
  8
0
 62
     0
 10
1.05006
 20
138.955
 30
0.0
 11
1.2926
 21
139.263
 31
0.0
  0
LINE
  8
0
 62
     0
 10
1.2926
 20
139.263
 30
0.0
 11
1.55994
 21
139.551
 31
0.0
  0
LINE
  8
0
 62
     0
 10
1.55994
 20
139.551
 30
0.0
 11
1.84795
 21
139.819
 31
0.0
  0
LINE
  8
0
 62
     0
 10
1.84795
 20
139.819
 30
0.0
 11
2.15663
 21
140.061
 31
0.0
  0
LINE
  8
0
 62
     0
 10
2.15663
 20
140.061
 30
0.0
 11
2.48185
 21
140.28
 31
0.0
  0
LINE
  8
0
 62
     0
 10
2.48185
 20
140.28
 30
0.0
 11
2.82498
 21
140.472
 31
0.0
  0
LINE
  8
0
 62
     0
 10
2.82498
 20
140.472
 30
0.0
 11
3.18189
 21
140.636
 31
0.0
  0
LINE
  8
0
 62
     0
 10
3.18189
 20
140.636
 30
0.0
 11
3.54983
 21
140.772
 31
0.0
  0
LINE
  8
0
 62
     0
 10
3.54983
 20
140.772
 30
0.0
 11
3.9274
 21
140.878
 31
0.0
  0
LINE
  8
0
 62
     0
 10
3.9274
 20
140.878
 30
0.0
 11
4.3119
 21
140.954
 31
0.0
  0
LINE
  8
0
 62
     0
 10
4.3119
 20
140.954
 30
0.0
 11
4.70186
 21
141.001
 31
0.0
  0
LINE
  8
0
 62
     0
 10
4.70186
 20
141.001
 30
0.0
 11
5.09598
 21
141.016
 31
0.0
  0
LINE
  8
0
 62
     0
 10
5.09598
 20
141.016
 30
0.0
 11
110.902
 21
141.016
 31
0.0
  0
LINE
  8
0
 62
     0
 10
110.016
 20
7.35873
 30
0.0
 11
109.467
 21
7.07898
 31
0.0
  0
LINE
  8
0
 62
     0
 10
109.467
 20
7.07898
 30
0.0
 11
109.032
 21
6.64351
 31
0.0
  0
LINE
  8
0
 62
     0
 10
109.032
 20
6.64351
 30
0.0
 11
108.752
 21
6.09505
 31
0.0
  0
LINE
  8
0
 62
     0
 10
108.752
 20
6.09505
 30
0.0
 11
108.657
 21
5.48735
 31
0.0
  0
LINE
  8
0
 62
     0
 10
108.657
 20
5.48735
 30
0.0
 11
108.752
 21
4.87962
 31
0.0
  0
LINE
  8
0
 62
     0
 10
108.752
 20
4.87962
 30
0.0
 11
109.032
 21
4.33116
 31
0.0
  0
LINE
  8
0
 62
     0
 10
109.032
 20
4.33116
 30
0.0
 11
109.467
 21
3.89573
 31
0.0
  0
LINE
  8
0
 62
     0
 10
109.467
 20
3.89573
 30
0.0
 11
110.016
 21
3.61597
 31
0.0
  0
LINE
  8
0
 62
     0
 10
110.016
 20
3.61597
 30
0.0
 11
110.623
 21
3.51951
 31
0.0
  0
LINE
  8
0
 62
     0
 10
110.623
 20
3.51951
 30
0.0
 11
111.231
 21
3.61597
 31
0.0
  0
LINE
  8
0
 62
     0
 10
111.231
 20
3.61597
 30
0.0
 11
111.779
 21
3.89573
 31
0.0
  0
LINE
  8
0
 62
     0
 10
111.779
 20
3.89573
 30
0.0
 11
112.215
 21
4.33116
 31
0.0
  0
LINE
  8
0
 62
     0
 10
112.215
 20
4.33116
 30
0.0
 11
112.495
 21
4.87962
 31
0.0
  0
LINE
  8
0
 62
     0
 10
112.495
 20
4.87962
 30
0.0
 11
112.591
 21
5.48735
 31
0.0
  0
LINE
  8
0
 62
     0
 10
112.591
 20
5.48735
 30
0.0
 11
112.495
 21
6.09505
 31
0.0
  0
LINE
  8
0
 62
     0
 10
112.495
 20
6.09505
 30
0.0
 11
112.215
 21
6.64351
 31
0.0
  0
LINE
  8
0
 62
     0
 10
112.215
 20
6.64351
 30
0.0
 11
111.779
 21
7.07898
 31
0.0
  0
LINE
  8
0
 62
     0
 10
111.779
 20
7.07898
 30
0.0
 11
111.231
 21
7.35873
 31
0.0
  0
LINE
  8
0
 62
     0
 10
111.231
 20
7.35873
 30
0.0
 11
110.623
 21
7.45518
 31
0.0
  0
LINE
  8
0
 62
     0
 10
110.623
 20
7.45518
 30
0.0
 11
110.016
 21
7.35873
 31
0.0
  0
LINE
  8
0
 62
     0
 10
4.76388
 20
7.35873
 30
0.0
 11
4.21679
 21
7.07898
 31
0.0
  0
LINE
  8
0
 62
     0
 10
4.21679
 20
7.07898
 30
0.0
 11
3.77994
 21
6.64351
 31
0.0
  0
LINE
  8
0
 62
     0
 10
3.77994
 20
6.64351
 30
0.0
 11
3.50159
 21
6.09505
 31
0.0
  0
LINE
  8
0
 62
     0
 10
3.50159
 20
6.09505
 30
0.0
 11
3.40513
 21
5.48735
 31
0.0
  0
LINE
  8
0
 62
     0
 10
3.40513
 20
5.48735
 30
0.0
 11
3.50159
 21
4.87962
 31
0.0
  0
LINE
  8
0
 62
     0
 10
3.50159
 20
4.87962
 30
0.0
 11
3.77994
 21
4.33116
 31
0.0
  0
LINE
  8
0
 62
     0
 10
3.77994
 20
4.33116
 30
0.0
 11
4.21679
 21
3.89573
 31
0.0
  0
LINE
  8
0
 62
     0
 10
4.21679
 20
3.89573
 30
0.0
 11
4.76388
 21
3.61597
 31
0.0
  0
LINE
  8
0
 62
     0
 10
4.76388
 20
3.61597
 30
0.0
 11
5.37298
 21
3.51951
 31
0.0
  0
LINE
  8
0
 62
     0
 10
5.37298
 20
3.51951
 30
0.0
 11
5.98068
 21
3.61597
 31
0.0
  0
LINE
  8
0
 62
     0
 10
5.98068
 20
3.61597
 30
0.0
 11
6.52914
 21
3.89573
 31
0.0
  0
LINE
  8
0
 62
     0
 10
6.52914
 20
3.89573
 30
0.0
 11
6.96461
 21
4.33116
 31
0.0
  0
LINE
  8
0
 62
     0
 10
6.96461
 20
4.33116
 30
0.0
 11
7.24299
 21
4.87962
 31
0.0
  0
LINE
  8
0
 62
     0
 10
7.24299
 20
4.87962
 30
0.0
 11
7.34081
 21
5.48735
 31
0.0
  0
LINE
  8
0
 62
     0
 10
7.34081
 20
5.48735
 30
0.0
 11
7.24299
 21
6.09505
 31
0.0
  0
LINE
  8
0
 62
     0
 10
7.24299
 20
6.09505
 30
0.0
 11
6.96461
 21
6.64351
 31
0.0
  0
LINE
  8
0
 62
     0
 10
6.96461
 20
6.64351
 30
0.0
 11
6.52914
 21
7.07898
 31
0.0
  0
LINE
  8
0
 62
     0
 10
6.52914
 20
7.07898
 30
0.0
 11
5.98068
 21
7.35873
 31
0.0
  0
LINE
  8
0
 62
     0
 10
5.98068
 20
7.35873
 30
0.0
 11
5.37298
 21
7.45518
 31
0.0
  0
LINE
  8
0
 62
     0
 10
5.37298
 20
7.45518
 30
0.0
 11
4.76388
 21
7.35873
 31
0.0
  0
LINE
  8
0
 62
     0
 10
13.1754
 20
26.7353
 30
0.0
 11
13.1754
 21
25.7362
 31
0.0
  0
LINE
  8
0
 62
     0
 10
13.1754
 20
25.7362
 30
0.0
 11
12.3762
 21
25.7362
 31
0.0
  0
LINE
  8
0
 62
     0
 10
12.3762
 20
25.7362
 30
0.0
 11
12.3762
 21
23.191
 31
0.0
  0
LINE
  8
0
 62
     0
 10
12.3762
 20
23.191
 30
0.0
 11
13.1754
 21
23.191
 31
0.0
  0
LINE
  8
0
 62
     0
 10
13.1754
 20
23.191
 30
0.0
 11
13.1754
 21
16.8355
 31
0.0
  0
LINE
  8
0
 62
     0
 10
13.1754
 20
16.8355
 30
0.0
 11
12.3762
 21
16.8355
 31
0.0
  0
LINE
  8
0
 62
     0
 10
12.3762
 20
16.8355
 30
0.0
 11
12.3762
 21
14.2903
 31
0.0
  0
LINE
  8
0
 62
     0
 10
12.3762
 20
14.2903
 30
0.0
 11
13.1754
 21
14.2903
 31
0.0
  0
LINE
  8
0
 62
     0
 10
13.1754
 20
14.2903
 30
0.0
 11
13.1754
 21
13.2912
 31
0.0
  0
LINE
  8
0
 62
     0
 10
13.1754
 20
13.2912
 30
0.0
 11
26.6209
 21
13.2912
 31
0.0
  0
LINE
  8
0
 62
     0
 10
26.6209
 20
13.2912
 30
0.0
 11
26.6209
 21
14.2903
 31
0.0
  0
LINE
  8
0
 62
     0
 10
26.6209
 20
14.2903
 30
0.0
 11
27.4202
 21
14.2903
 31
0.0
  0
LINE
  8
0
 62
     0
 10
27.4202
 20
14.2903
 30
0.0
 11
27.4202
 21
16.8355
 31
0.0
  0
LINE
  8
0
 62
     0
 10
27.4202
 20
16.8355
 30
0.0
 11
26.6209
 21
16.8355
 31
0.0
  0
LINE
  8
0
 62
     0
 10
26.6209
 20
16.8355
 30
0.0
 11
26.6209
 21
23.191
 31
0.0
  0
LINE
  8
0
 62
     0
 10
26.6209
 20
23.191
 30
0.0
 11
27.4202
 21
23.191
 31
0.0
  0
LINE
  8
0
 62
     0
 10
27.4202
 20
23.191
 30
0.0
 11
27.4202
 21
25.7362
 31
0.0
  0
LINE
  8
0
 62
     0
 10
27.4202
 20
25.7362
 30
0.0
 11
26.6209
 21
25.7362
 31
0.0
  0
LINE
  8
0
 62
     0
 10
26.6209
 20
25.7362
 30
0.0
 11
26.6209
 21
26.7353
 31
0.0
  0
LINE
  8
0
 62
     0
 10
26.6209
 20
26.7353
 30
0.0
 11
13.1754
 21
26.7353
 31
0.0
  0
LINE
  8
0
 62
     0
 10
32.2254
 20
26.7353
 30
0.0
 11
32.2254
 21
25.7362
 31
0.0
  0
LINE
  8
0
 62
     0
 10
32.2254
 20
25.7362
 30
0.0
 11
31.4262
 21
25.7362
 31
0.0
  0
LINE
  8
0
 62
     0
 10
31.4262
 20
25.7362
 30
0.0
 11
31.4262
 21
23.191
 31
0.0
  0
LINE
  8
0
 62
     0
 10
31.4262
 20
23.191
 30
0.0
 11
32.2254
 21
23.191
 31
0.0
  0
LINE
  8
0
 62
     0
 10
32.2254
 20
23.191
 30
0.0
 11
32.2254
 21
16.8355
 31
0.0
  0
LINE
  8
0
 62
     0
 10
32.2254
 20
16.8355
 30
0.0
 11
31.4262
 21
16.8355
 31
0.0
  0
LINE
  8
0
 62
     0
 10
31.4262
 20
16.8355
 30
0.0
 11
31.4262
 21
14.2903
 31
0.0
  0
LINE
  8
0
 62
     0
 10
31.4262
 20
14.2903
 30
0.0
 11
32.2254
 21
14.2903
 31
0.0
  0
LINE
  8
0
 62
     0
 10
32.2254
 20
14.2903
 30
0.0
 11
32.2254
 21
13.2912
 31
0.0
  0
LINE
  8
0
 62
     0
 10
32.2254
 20
13.2912
 30
0.0
 11
45.671
 21
13.2912
 31
0.0
  0
LINE
  8
0
 62
     0
 10
45.671
 20
13.2912
 30
0.0
 11
45.671
 21
14.2903
 31
0.0
  0
LINE
  8
0
 62
     0
 10
45.671
 20
14.2903
 30
0.0
 11
46.4704
 21
14.2903
 31
0.0
  0
LINE
  8
0
 62
     0
 10
46.4704
 20
14.2903
 30
0.0
 11
46.4704
 21
16.8355
 31
0.0
  0
LINE
  8
0
 62
     0
 10
46.4704
 20
16.8355
 30
0.0
 11
45.671
 21
16.8355
 31
0.0
  0
LINE
  8
0
 62
     0
 10
45.671
 20
16.8355
 30
0.0
 11
45.671
 21
23.191
 31
0.0
  0
LINE
  8
0
 62
     0
 10
45.671
 20
23.191
 30
0.0
 11
46.4704
 21
23.191
 31
0.0
  0
LINE
  8
0
 62
     0
 10
46.4704
 20
23.191
 30
0.0
 11
46.4704
 21
25.7362
 31
0.0
  0
LINE
  8
0
 62
     0
 10
46.4704
 20
25.7362
 30
0.0
 11
45.671
 21
25.7362
 31
0.0
  0
LINE
  8
0
 62
     0
 10
45.671
 20
25.7362
 30
0.0
 11
45.671
 21
26.7353
 31
0.0
  0
LINE
  8
0
 62
     0
 10
45.671
 20
26.7353
 30
0.0
 11
32.2254
 21
26.7353
 31
0.0
  0
LINE
  8
0
 62
     0
 10
51.2755
 20
26.7353
 30
0.0
 11
51.2755
 21
25.7362
 31
0.0
  0
LINE
  8
0
 62
     0
 10
51.2755
 20
25.7362
 30
0.0
 11
50.4762
 21
25.7362
 31
0.0
  0
LINE
  8
0
 62
     0
 10
50.4762
 20
25.7362
 30
0.0
 11
50.4762
 21
23.191
 31
0.0
  0
LINE
  8
0
 62
     0
 10
50.4762
 20
23.191
 30
0.0
 11
51.2755
 21
23.191
 31
0.0
  0
LINE
  8
0
 62
     0
 10
51.2755
 20
23.191
 30
0.0
 11
51.2755
 21
16.8355
 31
0.0
  0
LINE
  8
0
 62
     0
 10
51.2755
 20
16.8355
 30
0.0
 11
50.4762
 21
16.8355
 31
0.0
  0
LINE
  8
0
 62
     0
 10
50.4762
 20
16.8355
 30
0.0
 11
50.4762
 21
14.2903
 31
0.0
  0
LINE
  8
0
 62
     0
 10
50.4762
 20
14.2903
 30
0.0
 11
51.2755
 21
14.2903
 31
0.0
  0
LINE
  8
0
 62
     0
 10
51.2755
 20
14.2903
 30
0.0
 11
51.2755
 21
13.2912
 31
0.0
  0
LINE
  8
0
 62
     0
 10
51.2755
 20
13.2912
 30
0.0
 11
64.721
 21
13.2912
 31
0.0
  0
LINE
  8
0
 62
     0
 10
64.721
 20
13.2912
 30
0.0
 11
64.721
 21
14.2903
 31
0.0
  0
LINE
  8
0
 62
     0
 10
64.721
 20
14.2903
 30
0.0
 11
65.5204
 21
14.2903
 31
0.0
  0
LINE
  8
0
 62
     0
 10
65.5204
 20
14.2903
 30
0.0
 11
65.5204
 21
16.8355
 31
0.0
  0
LINE
  8
0
 62
     0
 10
65.5204
 20
16.8355
 30
0.0
 11
64.721
 21
16.8355
 31
0.0
  0
LINE
  8
0
 62
     0
 10
64.721
 20
16.8355
 30
0.0
 11
64.721
 21
23.191
 31
0.0
  0
LINE
  8
0
 62
     0
 10
64.721
 20
23.191
 30
0.0
 11
65.5204
 21
23.191
 31
0.0
  0
LINE
  8
0
 62
     0
 10
65.5204
 20
23.191
 30
0.0
 11
65.5204
 21
25.7362
 31
0.0
  0
LINE
  8
0
 62
     0
 10
65.5204
 20
25.7362
 30
0.0
 11
64.721
 21
25.7362
 31
0.0
  0
LINE
  8
0
 62
     0
 10
64.721
 20
25.7362
 30
0.0
 11
64.721
 21
26.7353
 31
0.0
  0
LINE
  8
0
 62
     0
 10
64.721
 20
26.7353
 30
0.0
 11
51.2755
 21
26.7353
 31
0.0
  0
LINE
  8
0
 62
     0
 10
70.3255
 20
26.7353
 30
0.0
 11
70.3255
 21
25.7362
 31
0.0
  0
LINE
  8
0
 62
     0
 10
70.3255
 20
25.7362
 30
0.0
 11
69.5262
 21
25.7362
 31
0.0
  0
LINE
  8
0
 62
     0
 10
69.5262
 20
25.7362
 30
0.0
 11
69.5262
 21
23.191
 31
0.0
  0
LINE
  8
0
 62
     0
 10
69.5262
 20
23.191
 30
0.0
 11
70.3255
 21
23.191
 31
0.0
  0
LINE
  8
0
 62
     0
 10
70.3255
 20
23.191
 30
0.0
 11
70.3255
 21
16.8355
 31
0.0
  0
LINE
  8
0
 62
     0
 10
70.3255
 20
16.8355
 30
0.0
 11
69.5262
 21
16.8355
 31
0.0
  0
LINE
  8
0
 62
     0
 10
69.5262
 20
16.8355
 30
0.0
 11
69.5262
 21
14.2903
 31
0.0
  0
LINE
  8
0
 62
     0
 10
69.5262
 20
14.2903
 30
0.0
 11
70.3255
 21
14.2903
 31
0.0
  0
LINE
  8
0
 62
     0
 10
70.3255
 20
14.2903
 30
0.0
 11
70.3255
 21
13.2912
 31
0.0
  0
LINE
  8
0
 62
     0
 10
70.3255
 20
13.2912
 30
0.0
 11
83.771
 21
13.2912
 31
0.0
  0
LINE
  8
0
 62
     0
 10
83.771
 20
13.2912
 30
0.0
 11
83.771
 21
14.2903
 31
0.0
  0
LINE
  8
0
 62
     0
 10
83.771
 20
14.2903
 30
0.0
 11
84.5704
 21
14.2903
 31
0.0
  0
LINE
  8
0
 62
     0
 10
84.5704
 20
14.2903
 30
0.0
 11
84.5704
 21
16.8355
 31
0.0
  0
LINE
  8
0
 62
     0
 10
84.5704
 20
16.8355
 30
0.0
 11
83.771
 21
16.8355
 31
0.0
  0
LINE
  8
0
 62
     0
 10
83.771
 20
16.8355
 30
0.0
 11
83.771
 21
23.191
 31
0.0
  0
LINE
  8
0
 62
     0
 10
83.771
 20
23.191
 30
0.0
 11
84.5704
 21
23.191
 31
0.0
  0
LINE
  8
0
 62
     0
 10
84.5704
 20
23.191
 30
0.0
 11
84.5704
 21
25.7362
 31
0.0
  0
LINE
  8
0
 62
     0
 10
84.5704
 20
25.7362
 30
0.0
 11
83.771
 21
25.7362
 31
0.0
  0
LINE
  8
0
 62
     0
 10
83.771
 20
25.7362
 30
0.0
 11
83.771
 21
26.7353
 31
0.0
  0
LINE
  8
0
 62
     0
 10
83.771
 20
26.7353
 30
0.0
 11
70.3255
 21
26.7353
 31
0.0
  0
LINE
  8
0
 62
     0
 10
89.3755
 20
26.7353
 30
0.0
 11
89.3755
 21
25.7362
 31
0.0
  0
LINE
  8
0
 62
     0
 10
89.3755
 20
25.7362
 30
0.0
 11
88.5762
 21
25.7362
 31
0.0
  0
LINE
  8
0
 62
     0
 10
88.5762
 20
25.7362
 30
0.0
 11
88.5762
 21
23.191
 31
0.0
  0
LINE
  8
0
 62
     0
 10
88.5762
 20
23.191
 30
0.0
 11
89.3755
 21
23.191
 31
0.0
  0
LINE
  8
0
 62
     0
 10
89.3755
 20
23.191
 30
0.0
 11
89.3755
 21
16.8355
 31
0.0
  0
LINE
  8
0
 62
     0
 10
89.3755
 20
16.8355
 30
0.0
 11
88.5762
 21
16.8355
 31
0.0
  0
LINE
  8
0
 62
     0
 10
88.5762
 20
16.8355
 30
0.0
 11
88.5762
 21
14.2903
 31
0.0
  0
LINE
  8
0
 62
     0
 10
88.5762
 20
14.2903
 30
0.0
 11
89.3755
 21
14.2903
 31
0.0
  0
LINE
  8
0
 62
     0
 10
89.3755
 20
14.2903
 30
0.0
 11
89.3755
 21
13.2912
 31
0.0
  0
LINE
  8
0
 62
     0
 10
89.3755
 20
13.2912
 30
0.0
 11
102.821
 21
13.2912
 31
0.0
  0
LINE
  8
0
 62
     0
 10
102.821
 20
13.2912
 30
0.0
 11
102.821
 21
14.2903
 31
0.0
  0
LINE
  8
0
 62
     0
 10
102.821
 20
14.2903
 30
0.0
 11
103.619
 21
14.2903
 31
0.0
  0
LINE
  8
0
 62
     0
 10
103.619
 20
14.2903
 30
0.0
 11
103.619
 21
16.8355
 31
0.0
  0
LINE
  8
0
 62
     0
 10
103.619
 20
16.8355
 30
0.0
 11
102.821
 21
16.8355
 31
0.0
  0
LINE
  8
0
 62
     0
 10
102.821
 20
16.8355
 30
0.0
 11
102.821
 21
23.191
 31
0.0
  0
LINE
  8
0
 62
     0
 10
102.821
 20
23.191
 30
0.0
 11
103.619
 21
23.191
 31
0.0
  0
LINE
  8
0
 62
     0
 10
103.619
 20
23.191
 30
0.0
 11
103.619
 21
25.7362
 31
0.0
  0
LINE
  8
0
 62
     0
 10
103.619
 20
25.7362
 30
0.0
 11
102.821
 21
25.7362
 31
0.0
  0
LINE
  8
0
 62
     0
 10
102.821
 20
25.7362
 30
0.0
 11
102.821
 21
26.7353
 31
0.0
  0
LINE
  8
0
 62
     0
 10
102.821
 20
26.7353
 30
0.0
 11
89.3755
 21
26.7353
 31
0.0
  0
LINE
  8
0
 62
     0
 10
13.1754
 20
45.7853
 30
0.0
 11
13.1754
 21
44.7862
 31
0.0
  0
LINE
  8
0
 62
     0
 10
13.1754
 20
44.7862
 30
0.0
 11
12.3762
 21
44.7862
 31
0.0
  0
LINE
  8
0
 62
     0
 10
12.3762
 20
44.7862
 30
0.0
 11
12.3762
 21
42.2409
 31
0.0
  0
LINE
  8
0
 62
     0
 10
12.3762
 20
42.2409
 30
0.0
 11
13.1754
 21
42.2409
 31
0.0
  0
LINE
  8
0
 62
     0
 10
13.1754
 20
42.2409
 30
0.0
 11
13.1754
 21
35.8856
 31
0.0
  0
LINE
  8
0
 62
     0
 10
13.1754
 20
35.8856
 30
0.0
 11
12.3762
 21
35.8856
 31
0.0
  0
LINE
  8
0
 62
     0
 10
12.3762
 20
35.8856
 30
0.0
 11
12.3762
 21
33.3403
 31
0.0
  0
LINE
  8
0
 62
     0
 10
12.3762
 20
33.3403
 30
0.0
 11
13.1754
 21
33.3403
 31
0.0
  0
LINE
  8
0
 62
     0
 10
13.1754
 20
33.3403
 30
0.0
 11
13.1754
 21
32.3412
 31
0.0
  0
LINE
  8
0
 62
     0
 10
13.1754
 20
32.3412
 30
0.0
 11
26.6209
 21
32.3412
 31
0.0
  0
LINE
  8
0
 62
     0
 10
26.6209
 20
32.3412
 30
0.0
 11
26.6209
 21
33.3403
 31
0.0
  0
LINE
  8
0
 62
     0
 10
26.6209
 20
33.3403
 30
0.0
 11
27.4202
 21
33.3403
 31
0.0
  0
LINE
  8
0
 62
     0
 10
27.4202
 20
33.3403
 30
0.0
 11
27.4202
 21
35.8856
 31
0.0
  0
LINE
  8
0
 62
     0
 10
27.4202
 20
35.8856
 30
0.0
 11
26.6209
 21
35.8856
 31
0.0
  0
LINE
  8
0
 62
     0
 10
26.6209
 20
35.8856
 30
0.0
 11
26.6209
 21
42.2409
 31
0.0
  0
LINE
  8
0
 62
     0
 10
26.6209
 20
42.2409
 30
0.0
 11
27.4202
 21
42.2409
 31
0.0
  0
LINE
  8
0
 62
     0
 10
27.4202
 20
42.2409
 30
0.0
 11
27.4202
 21
44.7862
 31
0.0
  0
LINE
  8
0
 62
     0
 10
27.4202
 20
44.7862
 30
0.0
 11
26.6209
 21
44.7862
 31
0.0
  0
LINE
  8
0
 62
     0
 10
26.6209
 20
44.7862
 30
0.0
 11
26.6209
 21
45.7853
 31
0.0
  0
LINE
  8
0
 62
     0
 10
26.6209
 20
45.7853
 30
0.0
 11
13.1754
 21
45.7853
 31
0.0
  0
LINE
  8
0
 62
     0
 10
32.2254
 20
45.7853
 30
0.0
 11
32.2254
 21
44.7862
 31
0.0
  0
LINE
  8
0
 62
     0
 10
32.2254
 20
44.7862
 30
0.0
 11
31.4262
 21
44.7862
 31
0.0
  0
LINE
  8
0
 62
     0
 10
31.4262
 20
44.7862
 30
0.0
 11
31.4262
 21
42.2409
 31
0.0
  0
LINE
  8
0
 62
     0
 10
31.4262
 20
42.2409
 30
0.0
 11
32.2254
 21
42.2409
 31
0.0
  0
LINE
  8
0
 62
     0
 10
32.2254
 20
42.2409
 30
0.0
 11
32.2254
 21
35.8856
 31
0.0
  0
LINE
  8
0
 62
     0
 10
32.2254
 20
35.8856
 30
0.0
 11
31.4262
 21
35.8856
 31
0.0
  0
LINE
  8
0
 62
     0
 10
31.4262
 20
35.8856
 30
0.0
 11
31.4262
 21
33.3403
 31
0.0
  0
LINE
  8
0
 62
     0
 10
31.4262
 20
33.3403
 30
0.0
 11
32.2254
 21
33.3403
 31
0.0
  0
LINE
  8
0
 62
     0
 10
32.2254
 20
33.3403
 30
0.0
 11
32.2254
 21
32.3412
 31
0.0
  0
LINE
  8
0
 62
     0
 10
32.2254
 20
32.3412
 30
0.0
 11
45.671
 21
32.3412
 31
0.0
  0
LINE
  8
0
 62
     0
 10
45.671
 20
32.3412
 30
0.0
 11
45.671
 21
33.3403
 31
0.0
  0
LINE
  8
0
 62
     0
 10
45.671
 20
33.3403
 30
0.0
 11
46.4704
 21
33.3403
 31
0.0
  0
LINE
  8
0
 62
     0
 10
46.4704
 20
33.3403
 30
0.0
 11
46.4704
 21
35.8856
 31
0.0
  0
LINE
  8
0
 62
     0
 10
46.4704
 20
35.8856
 30
0.0
 11
45.671
 21
35.8856
 31
0.0
  0
LINE
  8
0
 62
     0
 10
45.671
 20
35.8856
 30
0.0
 11
45.671
 21
42.2409
 31
0.0
  0
LINE
  8
0
 62
     0
 10
45.671
 20
42.2409
 30
0.0
 11
46.4704
 21
42.2409
 31
0.0
  0
LINE
  8
0
 62
     0
 10
46.4704
 20
42.2409
 30
0.0
 11
46.4704
 21
44.7862
 31
0.0
  0
LINE
  8
0
 62
     0
 10
46.4704
 20
44.7862
 30
0.0
 11
45.671
 21
44.7862
 31
0.0
  0
LINE
  8
0
 62
     0
 10
45.671
 20
44.7862
 30
0.0
 11
45.671
 21
45.7853
 31
0.0
  0
LINE
  8
0
 62
     0
 10
45.671
 20
45.7853
 30
0.0
 11
32.2254
 21
45.7853
 31
0.0
  0
LINE
  8
0
 62
     0
 10
51.2755
 20
45.7853
 30
0.0
 11
51.2755
 21
44.7862
 31
0.0
  0
LINE
  8
0
 62
     0
 10
51.2755
 20
44.7862
 30
0.0
 11
50.4762
 21
44.7862
 31
0.0
  0
LINE
  8
0
 62
     0
 10
50.4762
 20
44.7862
 30
0.0
 11
50.4762
 21
42.2409
 31
0.0
  0
LINE
  8
0
 62
     0
 10
50.4762
 20
42.2409
 30
0.0
 11
51.2755
 21
42.2409
 31
0.0
  0
LINE
  8
0
 62
     0
 10
51.2755
 20
42.2409
 30
0.0
 11
51.2755
 21
35.8856
 31
0.0
  0
LINE
  8
0
 62
     0
 10
51.2755
 20
35.8856
 30
0.0
 11
50.4762
 21
35.8856
 31
0.0
  0
LINE
  8
0
 62
     0
 10
50.4762
 20
35.8856
 30
0.0
 11
50.4762
 21
33.3403
 31
0.0
  0
LINE
  8
0
 62
     0
 10
50.4762
 20
33.3403
 30
0.0
 11
51.2755
 21
33.3403
 31
0.0
  0
LINE
  8
0
 62
     0
 10
51.2755
 20
33.3403
 30
0.0
 11
51.2755
 21
32.3412
 31
0.0
  0
LINE
  8
0
 62
     0
 10
51.2755
 20
32.3412
 30
0.0
 11
64.721
 21
32.3412
 31
0.0
  0
LINE
  8
0
 62
     0
 10
64.721
 20
32.3412
 30
0.0
 11
64.721
 21
33.3403
 31
0.0
  0
LINE
  8
0
 62
     0
 10
64.721
 20
33.3403
 30
0.0
 11
65.5204
 21
33.3403
 31
0.0
  0
LINE
  8
0
 62
     0
 10
65.5204
 20
33.3403
 30
0.0
 11
65.5204
 21
35.8856
 31
0.0
  0
LINE
  8
0
 62
     0
 10
65.5204
 20
35.8856
 30
0.0
 11
64.721
 21
35.8856
 31
0.0
  0
LINE
  8
0
 62
     0
 10
64.721
 20
35.8856
 30
0.0
 11
64.721
 21
42.2409
 31
0.0
  0
LINE
  8
0
 62
     0
 10
64.721
 20
42.2409
 30
0.0
 11
65.5204
 21
42.2409
 31
0.0
  0
LINE
  8
0
 62
     0
 10
65.5204
 20
42.2409
 30
0.0
 11
65.5204
 21
44.7862
 31
0.0
  0
LINE
  8
0
 62
     0
 10
65.5204
 20
44.7862
 30
0.0
 11
64.721
 21
44.7862
 31
0.0
  0
LINE
  8
0
 62
     0
 10
64.721
 20
44.7862
 30
0.0
 11
64.721
 21
45.7853
 31
0.0
  0
LINE
  8
0
 62
     0
 10
64.721
 20
45.7853
 30
0.0
 11
51.2755
 21
45.7853
 31
0.0
  0
LINE
  8
0
 62
     0
 10
70.3255
 20
45.7853
 30
0.0
 11
70.3255
 21
44.7862
 31
0.0
  0
LINE
  8
0
 62
     0
 10
70.3255
 20
44.7862
 30
0.0
 11
69.5262
 21
44.7862
 31
0.0
  0
LINE
  8
0
 62
     0
 10
69.5262
 20
44.7862
 30
0.0
 11
69.5262
 21
42.2409
 31
0.0
  0
LINE
  8
0
 62
     0
 10
69.5262
 20
42.2409
 30
0.0
 11
70.3255
 21
42.2409
 31
0.0
  0
LINE
  8
0
 62
     0
 10
70.3255
 20
42.2409
 30
0.0
 11
70.3255
 21
35.8856
 31
0.0
  0
LINE
  8
0
 62
     0
 10
70.3255
 20
35.8856
 30
0.0
 11
69.5262
 21
35.8856
 31
0.0
  0
LINE
  8
0
 62
     0
 10
69.5262
 20
35.8856
 30
0.0
 11
69.5262
 21
33.3403
 31
0.0
  0
LINE
  8
0
 62
     0
 10
69.5262
 20
33.3403
 30
0.0
 11
70.3255
 21
33.3403
 31
0.0
  0
LINE
  8
0
 62
     0
 10
70.3255
 20
33.3403
 30
0.0
 11
70.3255
 21
32.3412
 31
0.0
  0
LINE
  8
0
 62
     0
 10
70.3255
 20
32.3412
 30
0.0
 11
83.771
 21
32.3412
 31
0.0
  0
LINE
  8
0
 62
     0
 10
83.771
 20
32.3412
 30
0.0
 11
83.771
 21
33.3403
 31
0.0
  0
LINE
  8
0
 62
     0
 10
83.771
 20
33.3403
 30
0.0
 11
84.5704
 21
33.3403
 31
0.0
  0
LINE
  8
0
 62
     0
 10
84.5704
 20
33.3403
 30
0.0
 11
84.5704
 21
35.8856
 31
0.0
  0
LINE
  8
0
 62
     0
 10
84.5704
 20
35.8856
 30
0.0
 11
83.771
 21
35.8856
 31
0.0
  0
LINE
  8
0
 62
     0
 10
83.771
 20
35.8856
 30
0.0
 11
83.771
 21
42.2409
 31
0.0
  0
LINE
  8
0
 62
     0
 10
83.771
 20
42.2409
 30
0.0
 11
84.5704
 21
42.2409
 31
0.0
  0
LINE
  8
0
 62
     0
 10
84.5704
 20
42.2409
 30
0.0
 11
84.5704
 21
44.7862
 31
0.0
  0
LINE
  8
0
 62
     0
 10
84.5704
 20
44.7862
 30
0.0
 11
83.771
 21
44.7862
 31
0.0
  0
LINE
  8
0
 62
     0
 10
83.771
 20
44.7862
 30
0.0
 11
83.771
 21
45.7853
 31
0.0
  0
LINE
  8
0
 62
     0
 10
83.771
 20
45.7853
 30
0.0
 11
70.3255
 21
45.7853
 31
0.0
  0
LINE
  8
0
 62
     0
 10
89.3755
 20
45.7853
 30
0.0
 11
89.3755
 21
44.7862
 31
0.0
  0
LINE
  8
0
 62
     0
 10
89.3755
 20
44.7862
 30
0.0
 11
88.5762
 21
44.7862
 31
0.0
  0
LINE
  8
0
 62
     0
 10
88.5762
 20
44.7862
 30
0.0
 11
88.5762
 21
42.2409
 31
0.0
  0
LINE
  8
0
 62
     0
 10
88.5762
 20
42.2409
 30
0.0
 11
89.3755
 21
42.2409
 31
0.0
  0
LINE
  8
0
 62
     0
 10
89.3755
 20
42.2409
 30
0.0
 11
89.3755
 21
35.8856
 31
0.0
  0
LINE
  8
0
 62
     0
 10
89.3755
 20
35.8856
 30
0.0
 11
88.5762
 21
35.8856
 31
0.0
  0
LINE
  8
0
 62
     0
 10
88.5762
 20
35.8856
 30
0.0
 11
88.5762
 21
33.3403
 31
0.0
  0
LINE
  8
0
 62
     0
 10
88.5762
 20
33.3403
 30
0.0
 11
89.3755
 21
33.3403
 31
0.0
  0
LINE
  8
0
 62
     0
 10
89.3755
 20
33.3403
 30
0.0
 11
89.3755
 21
32.3412
 31
0.0
  0
LINE
  8
0
 62
     0
 10
89.3755
 20
32.3412
 30
0.0
 11
102.821
 21
32.3412
 31
0.0
  0
LINE
  8
0
 62
     0
 10
102.821
 20
32.3412
 30
0.0
 11
102.821
 21
33.3403
 31
0.0
  0
LINE
  8
0
 62
     0
 10
102.821
 20
33.3403
 30
0.0
 11
103.619
 21
33.3403
 31
0.0
  0
LINE
  8
0
 62
     0
 10
103.619
 20
33.3403
 30
0.0
 11
103.619
 21
35.8856
 31
0.0
  0
LINE
  8
0
 62
     0
 10
103.619
 20
35.8856
 30
0.0
 11
102.821
 21
35.8856
 31
0.0
  0
LINE
  8
0
 62
     0
 10
102.821
 20
35.8856
 30
0.0
 11
102.821
 21
42.2409
 31
0.0
  0
LINE
  8
0
 62
     0
 10
102.821
 20
42.2409
 30
0.0
 11
103.619
 21
42.2409
 31
0.0
  0
LINE
  8
0
 62
     0
 10
103.619
 20
42.2409
 30
0.0
 11
103.619
 21
44.7862
 31
0.0
  0
LINE
  8
0
 62
     0
 10
103.619
 20
44.7862
 30
0.0
 11
102.821
 21
44.7862
 31
0.0
  0
LINE
  8
0
 62
     0
 10
102.821
 20
44.7862
 30
0.0
 11
102.821
 21
45.7853
 31
0.0
  0
LINE
  8
0
 62
     0
 10
102.821
 20
45.7853
 30
0.0
 11
89.3755
 21
45.7853
 31
0.0
  0
LINE
  8
0
 62
     0
 10
13.1754
 20
64.8353
 30
0.0
 11
13.1754
 21
63.8362
 31
0.0
  0
LINE
  8
0
 62
     0
 10
13.1754
 20
63.8362
 30
0.0
 11
12.3762
 21
63.8362
 31
0.0
  0
LINE
  8
0
 62
     0
 10
12.3762
 20
63.8362
 30
0.0
 11
12.3762
 21
61.2909
 31
0.0
  0
LINE
  8
0
 62
     0
 10
12.3762
 20
61.2909
 30
0.0
 11
13.1754
 21
61.2909
 31
0.0
  0
LINE
  8
0
 62
     0
 10
13.1754
 20
61.2909
 30
0.0
 11
13.1754
 21
54.9356
 31
0.0
  0
LINE
  8
0
 62
     0
 10
13.1754
 20
54.9356
 30
0.0
 11
12.3762
 21
54.9356
 31
0.0
  0
LINE
  8
0
 62
     0
 10
12.3762
 20
54.9356
 30
0.0
 11
12.3762
 21
52.3903
 31
0.0
  0
LINE
  8
0
 62
     0
 10
12.3762
 20
52.3903
 30
0.0
 11
13.1754
 21
52.3903
 31
0.0
  0
LINE
  8
0
 62
     0
 10
13.1754
 20
52.3903
 30
0.0
 11
13.1754
 21
51.3913
 31
0.0
  0
LINE
  8
0
 62
     0
 10
13.1754
 20
51.3913
 30
0.0
 11
26.6209
 21
51.3913
 31
0.0
  0
LINE
  8
0
 62
     0
 10
26.6209
 20
51.3913
 30
0.0
 11
26.6209
 21
52.3903
 31
0.0
  0
LINE
  8
0
 62
     0
 10
26.6209
 20
52.3903
 30
0.0
 11
27.4202
 21
52.3903
 31
0.0
  0
LINE
  8
0
 62
     0
 10
27.4202
 20
52.3903
 30
0.0
 11
27.4202
 21
54.9356
 31
0.0
  0
LINE
  8
0
 62
     0
 10
27.4202
 20
54.9356
 30
0.0
 11
26.6209
 21
54.9356
 31
0.0
  0
LINE
  8
0
 62
     0
 10
26.6209
 20
54.9356
 30
0.0
 11
26.6209
 21
61.2909
 31
0.0
  0
LINE
  8
0
 62
     0
 10
26.6209
 20
61.2909
 30
0.0
 11
27.4202
 21
61.2909
 31
0.0
  0
LINE
  8
0
 62
     0
 10
27.4202
 20
61.2909
 30
0.0
 11
27.4202
 21
63.8362
 31
0.0
  0
LINE
  8
0
 62
     0
 10
27.4202
 20
63.8362
 30
0.0
 11
26.6209
 21
63.8362
 31
0.0
  0
LINE
  8
0
 62
     0
 10
26.6209
 20
63.8362
 30
0.0
 11
26.6209
 21
64.8353
 31
0.0
  0
LINE
  8
0
 62
     0
 10
26.6209
 20
64.8353
 30
0.0
 11
13.1754
 21
64.8353
 31
0.0
  0
LINE
  8
0
 62
     0
 10
32.2254
 20
64.8353
 30
0.0
 11
32.2254
 21
63.8362
 31
0.0
  0
LINE
  8
0
 62
     0
 10
32.2254
 20
63.8362
 30
0.0
 11
31.4262
 21
63.8362
 31
0.0
  0
LINE
  8
0
 62
     0
 10
31.4262
 20
63.8362
 30
0.0
 11
31.4262
 21
61.2909
 31
0.0
  0
LINE
  8
0
 62
     0
 10
31.4262
 20
61.2909
 30
0.0
 11
32.2254
 21
61.2909
 31
0.0
  0
LINE
  8
0
 62
     0
 10
32.2254
 20
61.2909
 30
0.0
 11
32.2254
 21
54.9356
 31
0.0
  0
LINE
  8
0
 62
     0
 10
32.2254
 20
54.9356
 30
0.0
 11
31.4262
 21
54.9356
 31
0.0
  0
LINE
  8
0
 62
     0
 10
31.4262
 20
54.9356
 30
0.0
 11
31.4262
 21
52.3903
 31
0.0
  0
LINE
  8
0
 62
     0
 10
31.4262
 20
52.3903
 30
0.0
 11
32.2254
 21
52.3903
 31
0.0
  0
LINE
  8
0
 62
     0
 10
32.2254
 20
52.3903
 30
0.0
 11
32.2254
 21
51.3913
 31
0.0
  0
LINE
  8
0
 62
     0
 10
32.2254
 20
51.3913
 30
0.0
 11
45.671
 21
51.3913
 31
0.0
  0
LINE
  8
0
 62
     0
 10
45.671
 20
51.3913
 30
0.0
 11
45.671
 21
52.3903
 31
0.0
  0
LINE
  8
0
 62
     0
 10
45.671
 20
52.3903
 30
0.0
 11
46.4704
 21
52.3903
 31
0.0
  0
LINE
  8
0
 62
     0
 10
46.4704
 20
52.3903
 30
0.0
 11
46.4704
 21
54.9356
 31
0.0
  0
LINE
  8
0
 62
     0
 10
46.4704
 20
54.9356
 30
0.0
 11
45.671
 21
54.9356
 31
0.0
  0
LINE
  8
0
 62
     0
 10
45.671
 20
54.9356
 30
0.0
 11
45.671
 21
61.2909
 31
0.0
  0
LINE
  8
0
 62
     0
 10
45.671
 20
61.2909
 30
0.0
 11
46.4704
 21
61.2909
 31
0.0
  0
LINE
  8
0
 62
     0
 10
46.4704
 20
61.2909
 30
0.0
 11
46.4704
 21
63.8362
 31
0.0
  0
LINE
  8
0
 62
     0
 10
46.4704
 20
63.8362
 30
0.0
 11
45.671
 21
63.8362
 31
0.0
  0
LINE
  8
0
 62
     0
 10
45.671
 20
63.8362
 30
0.0
 11
45.671
 21
64.8353
 31
0.0
  0
LINE
  8
0
 62
     0
 10
45.671
 20
64.8353
 30
0.0
 11
32.2254
 21
64.8353
 31
0.0
  0
LINE
  8
0
 62
     0
 10
51.2755
 20
64.8353
 30
0.0
 11
51.2755
 21
63.8362
 31
0.0
  0
LINE
  8
0
 62
     0
 10
51.2755
 20
63.8362
 30
0.0
 11
50.4762
 21
63.8362
 31
0.0
  0
LINE
  8
0
 62
     0
 10
50.4762
 20
63.8362
 30
0.0
 11
50.4762
 21
61.2909
 31
0.0
  0
LINE
  8
0
 62
     0
 10
50.4762
 20
61.2909
 30
0.0
 11
51.2755
 21
61.2909
 31
0.0
  0
LINE
  8
0
 62
     0
 10
51.2755
 20
61.2909
 30
0.0
 11
51.2755
 21
54.9356
 31
0.0
  0
LINE
  8
0
 62
     0
 10
51.2755
 20
54.9356
 30
0.0
 11
50.4762
 21
54.9356
 31
0.0
  0
LINE
  8
0
 62
     0
 10
50.4762
 20
54.9356
 30
0.0
 11
50.4762
 21
52.3903
 31
0.0
  0
LINE
  8
0
 62
     0
 10
50.4762
 20
52.3903
 30
0.0
 11
51.2755
 21
52.3903
 31
0.0
  0
LINE
  8
0
 62
     0
 10
51.2755
 20
52.3903
 30
0.0
 11
51.2755
 21
51.3913
 31
0.0
  0
LINE
  8
0
 62
     0
 10
51.2755
 20
51.3913
 30
0.0
 11
64.721
 21
51.3913
 31
0.0
  0
LINE
  8
0
 62
     0
 10
64.721
 20
51.3913
 30
0.0
 11
64.721
 21
52.3903
 31
0.0
  0
LINE
  8
0
 62
     0
 10
64.721
 20
52.3903
 30
0.0
 11
65.5204
 21
52.3903
 31
0.0
  0
LINE
  8
0
 62
     0
 10
65.5204
 20
52.3903
 30
0.0
 11
65.5204
 21
54.9356
 31
0.0
  0
LINE
  8
0
 62
     0
 10
65.5204
 20
54.9356
 30
0.0
 11
64.721
 21
54.9356
 31
0.0
  0
LINE
  8
0
 62
     0
 10
64.721
 20
54.9356
 30
0.0
 11
64.721
 21
61.2909
 31
0.0
  0
LINE
  8
0
 62
     0
 10
64.721
 20
61.2909
 30
0.0
 11
65.5204
 21
61.2909
 31
0.0
  0
LINE
  8
0
 62
     0
 10
65.5204
 20
61.2909
 30
0.0
 11
65.5204
 21
63.8362
 31
0.0
  0
LINE
  8
0
 62
     0
 10
65.5204
 20
63.8362
 30
0.0
 11
64.721
 21
63.8362
 31
0.0
  0
LINE
  8
0
 62
     0
 10
64.721
 20
63.8362
 30
0.0
 11
64.721
 21
64.8353
 31
0.0
  0
LINE
  8
0
 62
     0
 10
64.721
 20
64.8353
 30
0.0
 11
51.2755
 21
64.8353
 31
0.0
  0
LINE
  8
0
 62
     0
 10
70.3255
 20
64.8353
 30
0.0
 11
70.3255
 21
63.8362
 31
0.0
  0
LINE
  8
0
 62
     0
 10
70.3255
 20
63.8362
 30
0.0
 11
69.5262
 21
63.8362
 31
0.0
  0
LINE
  8
0
 62
     0
 10
69.5262
 20
63.8362
 30
0.0
 11
69.5262
 21
61.2909
 31
0.0
  0
LINE
  8
0
 62
     0
 10
69.5262
 20
61.2909
 30
0.0
 11
70.3255
 21
61.2909
 31
0.0
  0
LINE
  8
0
 62
     0
 10
70.3255
 20
61.2909
 30
0.0
 11
70.3255
 21
54.9356
 31
0.0
  0
LINE
  8
0
 62
     0
 10
70.3255
 20
54.9356
 30
0.0
 11
69.5262
 21
54.9356
 31
0.0
  0
LINE
  8
0
 62
     0
 10
69.5262
 20
54.9356
 30
0.0
 11
69.5262
 21
52.3903
 31
0.0
  0
LINE
  8
0
 62
     0
 10
69.5262
 20
52.3903
 30
0.0
 11
70.3255
 21
52.3903
 31
0.0
  0
LINE
  8
0
 62
     0
 10
70.3255
 20
52.3903
 30
0.0
 11
70.3255
 21
51.3913
 31
0.0
  0
LINE
  8
0
 62
     0
 10
70.3255
 20
51.3913
 30
0.0
 11
83.771
 21
51.3913
 31
0.0
  0
LINE
  8
0
 62
     0
 10
83.771
 20
51.3913
 30
0.0
 11
83.771
 21
52.3903
 31
0.0
  0
LINE
  8
0
 62
     0
 10
83.771
 20
52.3903
 30
0.0
 11
84.5704
 21
52.3903
 31
0.0
  0
LINE
  8
0
 62
     0
 10
84.5704
 20
52.3903
 30
0.0
 11
84.5704
 21
54.9356
 31
0.0
  0
LINE
  8
0
 62
     0
 10
84.5704
 20
54.9356
 30
0.0
 11
83.771
 21
54.9356
 31
0.0
  0
LINE
  8
0
 62
     0
 10
83.771
 20
54.9356
 30
0.0
 11
83.771
 21
61.2909
 31
0.0
  0
LINE
  8
0
 62
     0
 10
83.771
 20
61.2909
 30
0.0
 11
84.5704
 21
61.2909
 31
0.0
  0
LINE
  8
0
 62
     0
 10
84.5704
 20
61.2909
 30
0.0
 11
84.5704
 21
63.8362
 31
0.0
  0
LINE
  8
0
 62
     0
 10
84.5704
 20
63.8362
 30
0.0
 11
83.771
 21
63.8362
 31
0.0
  0
LINE
  8
0
 62
     0
 10
83.771
 20
63.8362
 30
0.0
 11
83.771
 21
64.8353
 31
0.0
  0
LINE
  8
0
 62
     0
 10
83.771
 20
64.8353
 30
0.0
 11
70.3255
 21
64.8353
 31
0.0
  0
LINE
  8
0
 62
     0
 10
89.3755
 20
64.8353
 30
0.0
 11
89.3755
 21
63.8362
 31
0.0
  0
LINE
  8
0
 62
     0
 10
89.3755
 20
63.8362
 30
0.0
 11
88.5762
 21
63.8362
 31
0.0
  0
LINE
  8
0
 62
     0
 10
88.5762
 20
63.8362
 30
0.0
 11
88.5762
 21
61.2909
 31
0.0
  0
LINE
  8
0
 62
     0
 10
88.5762
 20
61.2909
 30
0.0
 11
89.3755
 21
61.2909
 31
0.0
  0
LINE
  8
0
 62
     0
 10
89.3755
 20
61.2909
 30
0.0
 11
89.3755
 21
54.9356
 31
0.0
  0
LINE
  8
0
 62
     0
 10
89.3755
 20
54.9356
 30
0.0
 11
88.5762
 21
54.9356
 31
0.0
  0
LINE
  8
0
 62
     0
 10
88.5762
 20
54.9356
 30
0.0
 11
88.5762
 21
52.3903
 31
0.0
  0
LINE
  8
0
 62
     0
 10
88.5762
 20
52.3903
 30
0.0
 11
89.3755
 21
52.3903
 31
0.0
  0
LINE
  8
0
 62
     0
 10
89.3755
 20
52.3903
 30
0.0
 11
89.3755
 21
51.3913
 31
0.0
  0
LINE
  8
0
 62
     0
 10
89.3755
 20
51.3913
 30
0.0
 11
102.821
 21
51.3913
 31
0.0
  0
LINE
  8
0
 62
     0
 10
102.821
 20
51.3913
 30
0.0
 11
102.821
 21
52.3903
 31
0.0
  0
LINE
  8
0
 62
     0
 10
102.821
 20
52.3903
 30
0.0
 11
103.619
 21
52.3903
 31
0.0
  0
LINE
  8
0
 62
     0
 10
103.619
 20
52.3903
 30
0.0
 11
103.619
 21
54.9356
 31
0.0
  0
LINE
  8
0
 62
     0
 10
103.619
 20
54.9356
 30
0.0
 11
102.821
 21
54.9356
 31
0.0
  0
LINE
  8
0
 62
     0
 10
102.821
 20
54.9356
 30
0.0
 11
102.821
 21
61.2909
 31
0.0
  0
LINE
  8
0
 62
     0
 10
102.821
 20
61.2909
 30
0.0
 11
103.619
 21
61.2909
 31
0.0
  0
LINE
  8
0
 62
     0
 10
103.619
 20
61.2909
 30
0.0
 11
103.619
 21
63.8362
 31
0.0
  0
LINE
  8
0
 62
     0
 10
103.619
 20
63.8362
 30
0.0
 11
102.821
 21
63.8362
 31
0.0
  0
LINE
  8
0
 62
     0
 10
102.821
 20
63.8362
 30
0.0
 11
102.821
 21
64.8353
 31
0.0
  0
LINE
  8
0
 62
     0
 10
102.821
 20
64.8353
 30
0.0
 11
89.3755
 21
64.8353
 31
0.0
  0
LINE
  8
0
 62
     0
 10
13.1754
 20
83.8853
 30
0.0
 11
13.1754
 21
82.8862
 31
0.0
  0
LINE
  8
0
 62
     0
 10
13.1754
 20
82.8862
 30
0.0
 11
12.3762
 21
82.8862
 31
0.0
  0
LINE
  8
0
 62
     0
 10
12.3762
 20
82.8862
 30
0.0
 11
12.3762
 21
80.3409
 31
0.0
  0
LINE
  8
0
 62
     0
 10
12.3762
 20
80.3409
 30
0.0
 11
13.1754
 21
80.3409
 31
0.0
  0
LINE
  8
0
 62
     0
 10
13.1754
 20
80.3409
 30
0.0
 11
13.1754
 21
73.9856
 31
0.0
  0
LINE
  8
0
 62
     0
 10
13.1754
 20
73.9856
 30
0.0
 11
12.3762
 21
73.9856
 31
0.0
  0
LINE
  8
0
 62
     0
 10
12.3762
 20
73.9856
 30
0.0
 11
12.3762
 21
71.4403
 31
0.0
  0
LINE
  8
0
 62
     0
 10
12.3762
 20
71.4403
 30
0.0
 11
13.1754
 21
71.4403
 31
0.0
  0
LINE
  8
0
 62
     0
 10
13.1754
 20
71.4403
 30
0.0
 11
13.1754
 21
70.4413
 31
0.0
  0
LINE
  8
0
 62
     0
 10
13.1754
 20
70.4413
 30
0.0
 11
26.6209
 21
70.4413
 31
0.0
  0
LINE
  8
0
 62
     0
 10
26.6209
 20
70.4413
 30
0.0
 11
26.6209
 21
71.4403
 31
0.0
  0
LINE
  8
0
 62
     0
 10
26.6209
 20
71.4403
 30
0.0
 11
27.4202
 21
71.4403
 31
0.0
  0
LINE
  8
0
 62
     0
 10
27.4202
 20
71.4403
 30
0.0
 11
27.4202
 21
73.9856
 31
0.0
  0
LINE
  8
0
 62
     0
 10
27.4202
 20
73.9856
 30
0.0
 11
26.6209
 21
73.9856
 31
0.0
  0
LINE
  8
0
 62
     0
 10
26.6209
 20
73.9856
 30
0.0
 11
26.6209
 21
80.3409
 31
0.0
  0
LINE
  8
0
 62
     0
 10
26.6209
 20
80.3409
 30
0.0
 11
27.4202
 21
80.3409
 31
0.0
  0
LINE
  8
0
 62
     0
 10
27.4202
 20
80.3409
 30
0.0
 11
27.4202
 21
82.8862
 31
0.0
  0
LINE
  8
0
 62
     0
 10
27.4202
 20
82.8862
 30
0.0
 11
26.6209
 21
82.8862
 31
0.0
  0
LINE
  8
0
 62
     0
 10
26.6209
 20
82.8862
 30
0.0
 11
26.6209
 21
83.8853
 31
0.0
  0
LINE
  8
0
 62
     0
 10
26.6209
 20
83.8853
 30
0.0
 11
13.1754
 21
83.8853
 31
0.0
  0
LINE
  8
0
 62
     0
 10
32.2254
 20
83.8853
 30
0.0
 11
32.2254
 21
82.8862
 31
0.0
  0
LINE
  8
0
 62
     0
 10
32.2254
 20
82.8862
 30
0.0
 11
31.4262
 21
82.8862
 31
0.0
  0
LINE
  8
0
 62
     0
 10
31.4262
 20
82.8862
 30
0.0
 11
31.4262
 21
80.3409
 31
0.0
  0
LINE
  8
0
 62
     0
 10
31.4262
 20
80.3409
 30
0.0
 11
32.2254
 21
80.3409
 31
0.0
  0
LINE
  8
0
 62
     0
 10
32.2254
 20
80.3409
 30
0.0
 11
32.2254
 21
73.9856
 31
0.0
  0
LINE
  8
0
 62
     0
 10
32.2254
 20
73.9856
 30
0.0
 11
31.4262
 21
73.9856
 31
0.0
  0
LINE
  8
0
 62
     0
 10
31.4262
 20
73.9856
 30
0.0
 11
31.4262
 21
71.4403
 31
0.0
  0
LINE
  8
0
 62
     0
 10
31.4262
 20
71.4403
 30
0.0
 11
32.2254
 21
71.4403
 31
0.0
  0
LINE
  8
0
 62
     0
 10
32.2254
 20
71.4403
 30
0.0
 11
32.2254
 21
70.4413
 31
0.0
  0
LINE
  8
0
 62
     0
 10
32.2254
 20
70.4413
 30
0.0
 11
45.671
 21
70.4413
 31
0.0
  0
LINE
  8
0
 62
     0
 10
45.671
 20
70.4413
 30
0.0
 11
45.671
 21
71.4403
 31
0.0
  0
LINE
  8
0
 62
     0
 10
45.671
 20
71.4403
 30
0.0
 11
46.4704
 21
71.4403
 31
0.0
  0
LINE
  8
0
 62
     0
 10
46.4704
 20
71.4403
 30
0.0
 11
46.4704
 21
73.9856
 31
0.0
  0
LINE
  8
0
 62
     0
 10
46.4704
 20
73.9856
 30
0.0
 11
45.671
 21
73.9856
 31
0.0
  0
LINE
  8
0
 62
     0
 10
45.671
 20
73.9856
 30
0.0
 11
45.671
 21
80.3409
 31
0.0
  0
LINE
  8
0
 62
     0
 10
45.671
 20
80.3409
 30
0.0
 11
46.4704
 21
80.3409
 31
0.0
  0
LINE
  8
0
 62
     0
 10
46.4704
 20
80.3409
 30
0.0
 11
46.4704
 21
82.8862
 31
0.0
  0
LINE
  8
0
 62
     0
 10
46.4704
 20
82.8862
 30
0.0
 11
45.671
 21
82.8862
 31
0.0
  0
LINE
  8
0
 62
     0
 10
45.671
 20
82.8862
 30
0.0
 11
45.671
 21
83.8853
 31
0.0
  0
LINE
  8
0
 62
     0
 10
45.671
 20
83.8853
 30
0.0
 11
32.2254
 21
83.8853
 31
0.0
  0
LINE
  8
0
 62
     0
 10
51.2755
 20
83.8853
 30
0.0
 11
51.2755
 21
82.8862
 31
0.0
  0
LINE
  8
0
 62
     0
 10
51.2755
 20
82.8862
 30
0.0
 11
50.4762
 21
82.8862
 31
0.0
  0
LINE
  8
0
 62
     0
 10
50.4762
 20
82.8862
 30
0.0
 11
50.4762
 21
80.3409
 31
0.0
  0
LINE
  8
0
 62
     0
 10
50.4762
 20
80.3409
 30
0.0
 11
51.2755
 21
80.3409
 31
0.0
  0
LINE
  8
0
 62
     0
 10
51.2755
 20
80.3409
 30
0.0
 11
51.2755
 21
73.9856
 31
0.0
  0
LINE
  8
0
 62
     0
 10
51.2755
 20
73.9856
 30
0.0
 11
50.4762
 21
73.9856
 31
0.0
  0
LINE
  8
0
 62
     0
 10
50.4762
 20
73.9856
 30
0.0
 11
50.4762
 21
71.4403
 31
0.0
  0
LINE
  8
0
 62
     0
 10
50.4762
 20
71.4403
 30
0.0
 11
51.2755
 21
71.4403
 31
0.0
  0
LINE
  8
0
 62
     0
 10
51.2755
 20
71.4403
 30
0.0
 11
51.2755
 21
70.4413
 31
0.0
  0
LINE
  8
0
 62
     0
 10
51.2755
 20
70.4413
 30
0.0
 11
64.721
 21
70.4413
 31
0.0
  0
LINE
  8
0
 62
     0
 10
64.721
 20
70.4413
 30
0.0
 11
64.721
 21
71.4403
 31
0.0
  0
LINE
  8
0
 62
     0
 10
64.721
 20
71.4403
 30
0.0
 11
65.5204
 21
71.4403
 31
0.0
  0
LINE
  8
0
 62
     0
 10
65.5204
 20
71.4403
 30
0.0
 11
65.5204
 21
73.9856
 31
0.0
  0
LINE
  8
0
 62
     0
 10
65.5204
 20
73.9856
 30
0.0
 11
64.721
 21
73.9856
 31
0.0
  0
LINE
  8
0
 62
     0
 10
64.721
 20
73.9856
 30
0.0
 11
64.721
 21
80.3409
 31
0.0
  0
LINE
  8
0
 62
     0
 10
64.721
 20
80.3409
 30
0.0
 11
65.5204
 21
80.3409
 31
0.0
  0
LINE
  8
0
 62
     0
 10
65.5204
 20
80.3409
 30
0.0
 11
65.5204
 21
82.8862
 31
0.0
  0
LINE
  8
0
 62
     0
 10
65.5204
 20
82.8862
 30
0.0
 11
64.721
 21
82.8862
 31
0.0
  0
LINE
  8
0
 62
     0
 10
64.721
 20
82.8862
 30
0.0
 11
64.721
 21
83.8853
 31
0.0
  0
LINE
  8
0
 62
     0
 10
64.721
 20
83.8853
 30
0.0
 11
51.2755
 21
83.8853
 31
0.0
  0
LINE
  8
0
 62
     0
 10
70.3255
 20
83.8853
 30
0.0
 11
70.3255
 21
82.8862
 31
0.0
  0
LINE
  8
0
 62
     0
 10
70.3255
 20
82.8862
 30
0.0
 11
69.5262
 21
82.8862
 31
0.0
  0
LINE
  8
0
 62
     0
 10
69.5262
 20
82.8862
 30
0.0
 11
69.5262
 21
80.3409
 31
0.0
  0
LINE
  8
0
 62
     0
 10
69.5262
 20
80.3409
 30
0.0
 11
70.3255
 21
80.3409
 31
0.0
  0
LINE
  8
0
 62
     0
 10
70.3255
 20
80.3409
 30
0.0
 11
70.3255
 21
73.9856
 31
0.0
  0
LINE
  8
0
 62
     0
 10
70.3255
 20
73.9856
 30
0.0
 11
69.5262
 21
73.9856
 31
0.0
  0
LINE
  8
0
 62
     0
 10
69.5262
 20
73.9856
 30
0.0
 11
69.5262
 21
71.4403
 31
0.0
  0
LINE
  8
0
 62
     0
 10
69.5262
 20
71.4403
 30
0.0
 11
70.3255
 21
71.4403
 31
0.0
  0
LINE
  8
0
 62
     0
 10
70.3255
 20
71.4403
 30
0.0
 11
70.3255
 21
70.4413
 31
0.0
  0
LINE
  8
0
 62
     0
 10
70.3255
 20
70.4413
 30
0.0
 11
83.771
 21
70.4413
 31
0.0
  0
LINE
  8
0
 62
     0
 10
83.771
 20
70.4413
 30
0.0
 11
83.771
 21
71.4403
 31
0.0
  0
LINE
  8
0
 62
     0
 10
83.771
 20
71.4403
 30
0.0
 11
84.5704
 21
71.4403
 31
0.0
  0
LINE
  8
0
 62
     0
 10
84.5704
 20
71.4403
 30
0.0
 11
84.5704
 21
73.9856
 31
0.0
  0
LINE
  8
0
 62
     0
 10
84.5704
 20
73.9856
 30
0.0
 11
83.771
 21
73.9856
 31
0.0
  0
LINE
  8
0
 62
     0
 10
83.771
 20
73.9856
 30
0.0
 11
83.771
 21
80.3409
 31
0.0
  0
LINE
  8
0
 62
     0
 10
83.771
 20
80.3409
 30
0.0
 11
84.5704
 21
80.3409
 31
0.0
  0
LINE
  8
0
 62
     0
 10
84.5704
 20
80.3409
 30
0.0
 11
84.5704
 21
82.8862
 31
0.0
  0
LINE
  8
0
 62
     0
 10
84.5704
 20
82.8862
 30
0.0
 11
83.771
 21
82.8862
 31
0.0
  0
LINE
  8
0
 62
     0
 10
83.771
 20
82.8862
 30
0.0
 11
83.771
 21
83.8853
 31
0.0
  0
LINE
  8
0
 62
     0
 10
83.771
 20
83.8853
 30
0.0
 11
70.3255
 21
83.8853
 31
0.0
  0
LINE
  8
0
 62
     0
 10
89.3755
 20
83.8853
 30
0.0
 11
89.3755
 21
82.8862
 31
0.0
  0
LINE
  8
0
 62
     0
 10
89.3755
 20
82.8862
 30
0.0
 11
88.5762
 21
82.8862
 31
0.0
  0
LINE
  8
0
 62
     0
 10
88.5762
 20
82.8862
 30
0.0
 11
88.5762
 21
80.3409
 31
0.0
  0
LINE
  8
0
 62
     0
 10
88.5762
 20
80.3409
 30
0.0
 11
89.3755
 21
80.3409
 31
0.0
  0
LINE
  8
0
 62
     0
 10
89.3755
 20
80.3409
 30
0.0
 11
89.3755
 21
73.9856
 31
0.0
  0
LINE
  8
0
 62
     0
 10
89.3755
 20
73.9856
 30
0.0
 11
88.5762
 21
73.9856
 31
0.0
  0
LINE
  8
0
 62
     0
 10
88.5762
 20
73.9856
 30
0.0
 11
88.5762
 21
71.4403
 31
0.0
  0
LINE
  8
0
 62
     0
 10
88.5762
 20
71.4403
 30
0.0
 11
89.3755
 21
71.4403
 31
0.0
  0
LINE
  8
0
 62
     0
 10
89.3755
 20
71.4403
 30
0.0
 11
89.3755
 21
70.4413
 31
0.0
  0
LINE
  8
0
 62
     0
 10
89.3755
 20
70.4413
 30
0.0
 11
102.821
 21
70.4413
 31
0.0
  0
LINE
  8
0
 62
     0
 10
102.821
 20
70.4413
 30
0.0
 11
102.821
 21
71.4403
 31
0.0
  0
LINE
  8
0
 62
     0
 10
102.821
 20
71.4403
 30
0.0
 11
103.619
 21
71.4403
 31
0.0
  0
LINE
  8
0
 62
     0
 10
103.619
 20
71.4403
 30
0.0
 11
103.619
 21
73.9856
 31
0.0
  0
LINE
  8
0
 62
     0
 10
103.619
 20
73.9856
 30
0.0
 11
102.821
 21
73.9856
 31
0.0
  0
LINE
  8
0
 62
     0
 10
102.821
 20
73.9856
 30
0.0
 11
102.821
 21
80.3409
 31
0.0
  0
LINE
  8
0
 62
     0
 10
102.821
 20
80.3409
 30
0.0
 11
103.619
 21
80.3409
 31
0.0
  0
LINE
  8
0
 62
     0
 10
103.619
 20
80.3409
 30
0.0
 11
103.619
 21
82.8862
 31
0.0
  0
LINE
  8
0
 62
     0
 10
103.619
 20
82.8862
 30
0.0
 11
102.821
 21
82.8862
 31
0.0
  0
LINE
  8
0
 62
     0
 10
102.821
 20
82.8862
 30
0.0
 11
102.821
 21
83.8853
 31
0.0
  0
LINE
  8
0
 62
     0
 10
102.821
 20
83.8853
 30
0.0
 11
89.3755
 21
83.8853
 31
0.0
  0
LINE
  8
0
 62
     0
 10
13.1754
 20
102.935
 30
0.0
 11
13.1754
 21
101.936
 31
0.0
  0
LINE
  8
0
 62
     0
 10
13.1754
 20
101.936
 30
0.0
 11
12.3762
 21
101.936
 31
0.0
  0
LINE
  8
0
 62
     0
 10
12.3762
 20
101.936
 30
0.0
 11
12.3762
 21
99.3909
 31
0.0
  0
LINE
  8
0
 62
     0
 10
12.3762
 20
99.3909
 30
0.0
 11
13.1754
 21
99.3909
 31
0.0
  0
LINE
  8
0
 62
     0
 10
13.1754
 20
99.3909
 30
0.0
 11
13.1754
 21
93.0356
 31
0.0
  0
LINE
  8
0
 62
     0
 10
13.1754
 20
93.0356
 30
0.0
 11
12.3762
 21
93.0356
 31
0.0
  0
LINE
  8
0
 62
     0
 10
12.3762
 20
93.0356
 30
0.0
 11
12.3762
 21
90.4903
 31
0.0
  0
LINE
  8
0
 62
     0
 10
12.3762
 20
90.4903
 30
0.0
 11
13.1754
 21
90.4903
 31
0.0
  0
LINE
  8
0
 62
     0
 10
13.1754
 20
90.4903
 30
0.0
 11
13.1754
 21
89.4913
 31
0.0
  0
LINE
  8
0
 62
     0
 10
13.1754
 20
89.4913
 30
0.0
 11
26.6209
 21
89.4913
 31
0.0
  0
LINE
  8
0
 62
     0
 10
26.6209
 20
89.4913
 30
0.0
 11
26.6209
 21
90.4903
 31
0.0
  0
LINE
  8
0
 62
     0
 10
26.6209
 20
90.4903
 30
0.0
 11
27.4202
 21
90.4903
 31
0.0
  0
LINE
  8
0
 62
     0
 10
27.4202
 20
90.4903
 30
0.0
 11
27.4202
 21
93.0356
 31
0.0
  0
LINE
  8
0
 62
     0
 10
27.4202
 20
93.0356
 30
0.0
 11
26.6209
 21
93.0356
 31
0.0
  0
LINE
  8
0
 62
     0
 10
26.6209
 20
93.0356
 30
0.0
 11
26.6209
 21
99.3909
 31
0.0
  0
LINE
  8
0
 62
     0
 10
26.6209
 20
99.3909
 30
0.0
 11
27.4202
 21
99.3909
 31
0.0
  0
LINE
  8
0
 62
     0
 10
27.4202
 20
99.3909
 30
0.0
 11
27.4202
 21
101.936
 31
0.0
  0
LINE
  8
0
 62
     0
 10
27.4202
 20
101.936
 30
0.0
 11
26.6209
 21
101.936
 31
0.0
  0
LINE
  8
0
 62
     0
 10
26.6209
 20
101.936
 30
0.0
 11
26.6209
 21
102.935
 31
0.0
  0
LINE
  8
0
 62
     0
 10
26.6209
 20
102.935
 30
0.0
 11
13.1754
 21
102.935
 31
0.0
  0
LINE
  8
0
 62
     0
 10
32.2254
 20
102.935
 30
0.0
 11
32.2254
 21
101.936
 31
0.0
  0
LINE
  8
0
 62
     0
 10
32.2254
 20
101.936
 30
0.0
 11
31.4262
 21
101.936
 31
0.0
  0
LINE
  8
0
 62
     0
 10
31.4262
 20
101.936
 30
0.0
 11
31.4262
 21
99.3909
 31
0.0
  0
LINE
  8
0
 62
     0
 10
31.4262
 20
99.3909
 30
0.0
 11
32.2254
 21
99.3909
 31
0.0
  0
LINE
  8
0
 62
     0
 10
32.2254
 20
99.3909
 30
0.0
 11
32.2254
 21
93.0356
 31
0.0
  0
LINE
  8
0
 62
     0
 10
32.2254
 20
93.0356
 30
0.0
 11
31.4262
 21
93.0356
 31
0.0
  0
LINE
  8
0
 62
     0
 10
31.4262
 20
93.0356
 30
0.0
 11
31.4262
 21
90.4903
 31
0.0
  0
LINE
  8
0
 62
     0
 10
31.4262
 20
90.4903
 30
0.0
 11
32.2254
 21
90.4903
 31
0.0
  0
LINE
  8
0
 62
     0
 10
32.2254
 20
90.4903
 30
0.0
 11
32.2254
 21
89.4913
 31
0.0
  0
LINE
  8
0
 62
     0
 10
32.2254
 20
89.4913
 30
0.0
 11
45.671
 21
89.4913
 31
0.0
  0
LINE
  8
0
 62
     0
 10
45.671
 20
89.4913
 30
0.0
 11
45.671
 21
90.4903
 31
0.0
  0
LINE
  8
0
 62
     0
 10
45.671
 20
90.4903
 30
0.0
 11
46.4704
 21
90.4903
 31
0.0
  0
LINE
  8
0
 62
     0
 10
46.4704
 20
90.4903
 30
0.0
 11
46.4704
 21
93.0356
 31
0.0
  0
LINE
  8
0
 62
     0
 10
46.4704
 20
93.0356
 30
0.0
 11
45.671
 21
93.0356
 31
0.0
  0
LINE
  8
0
 62
     0
 10
45.671
 20
93.0356
 30
0.0
 11
45.671
 21
99.3909
 31
0.0
  0
LINE
  8
0
 62
     0
 10
45.671
 20
99.3909
 30
0.0
 11
46.4704
 21
99.3909
 31
0.0
  0
LINE
  8
0
 62
     0
 10
46.4704
 20
99.3909
 30
0.0
 11
46.4704
 21
101.936
 31
0.0
  0
LINE
  8
0
 62
     0
 10
46.4704
 20
101.936
 30
0.0
 11
45.671
 21
101.936
 31
0.0
  0
LINE
  8
0
 62
     0
 10
45.671
 20
101.936
 30
0.0
 11
45.671
 21
102.935
 31
0.0
  0
LINE
  8
0
 62
     0
 10
45.671
 20
102.935
 30
0.0
 11
32.2254
 21
102.935
 31
0.0
  0
LINE
  8
0
 62
     0
 10
51.2755
 20
102.935
 30
0.0
 11
51.2755
 21
101.936
 31
0.0
  0
LINE
  8
0
 62
     0
 10
51.2755
 20
101.936
 30
0.0
 11
50.4762
 21
101.936
 31
0.0
  0
LINE
  8
0
 62
     0
 10
50.4762
 20
101.936
 30
0.0
 11
50.4762
 21
99.3909
 31
0.0
  0
LINE
  8
0
 62
     0
 10
50.4762
 20
99.3909
 30
0.0
 11
51.2755
 21
99.3909
 31
0.0
  0
LINE
  8
0
 62
     0
 10
51.2755
 20
99.3909
 30
0.0
 11
51.2755
 21
93.0356
 31
0.0
  0
LINE
  8
0
 62
     0
 10
51.2755
 20
93.0356
 30
0.0
 11
50.4762
 21
93.0356
 31
0.0
  0
LINE
  8
0
 62
     0
 10
50.4762
 20
93.0356
 30
0.0
 11
50.4762
 21
90.4903
 31
0.0
  0
LINE
  8
0
 62
     0
 10
50.4762
 20
90.4903
 30
0.0
 11
51.2755
 21
90.4903
 31
0.0
  0
LINE
  8
0
 62
     0
 10
51.2755
 20
90.4903
 30
0.0
 11
51.2755
 21
89.4913
 31
0.0
  0
LINE
  8
0
 62
     0
 10
51.2755
 20
89.4913
 30
0.0
 11
64.721
 21
89.4913
 31
0.0
  0
LINE
  8
0
 62
     0
 10
64.721
 20
89.4913
 30
0.0
 11
64.721
 21
90.4903
 31
0.0
  0
LINE
  8
0
 62
     0
 10
64.721
 20
90.4903
 30
0.0
 11
65.5204
 21
90.4903
 31
0.0
  0
LINE
  8
0
 62
     0
 10
65.5204
 20
90.4903
 30
0.0
 11
65.5204
 21
93.0356
 31
0.0
  0
LINE
  8
0
 62
     0
 10
65.5204
 20
93.0356
 30
0.0
 11
64.721
 21
93.0356
 31
0.0
  0
LINE
  8
0
 62
     0
 10
64.721
 20
93.0356
 30
0.0
 11
64.721
 21
99.3909
 31
0.0
  0
LINE
  8
0
 62
     0
 10
64.721
 20
99.3909
 30
0.0
 11
65.5204
 21
99.3909
 31
0.0
  0
LINE
  8
0
 62
     0
 10
65.5204
 20
99.3909
 30
0.0
 11
65.5204
 21
101.936
 31
0.0
  0
LINE
  8
0
 62
     0
 10
65.5204
 20
101.936
 30
0.0
 11
64.721
 21
101.936
 31
0.0
  0
LINE
  8
0
 62
     0
 10
64.721
 20
101.936
 30
0.0
 11
64.721
 21
102.935
 31
0.0
  0
LINE
  8
0
 62
     0
 10
64.721
 20
102.935
 30
0.0
 11
51.2755
 21
102.935
 31
0.0
  0
LINE
  8
0
 62
     0
 10
70.3255
 20
102.935
 30
0.0
 11
70.3255
 21
101.936
 31
0.0
  0
LINE
  8
0
 62
     0
 10
70.3255
 20
101.936
 30
0.0
 11
69.5262
 21
101.936
 31
0.0
  0
LINE
  8
0
 62
     0
 10
69.5262
 20
101.936
 30
0.0
 11
69.5262
 21
99.3909
 31
0.0
  0
LINE
  8
0
 62
     0
 10
69.5262
 20
99.3909
 30
0.0
 11
70.3255
 21
99.3909
 31
0.0
  0
LINE
  8
0
 62
     0
 10
70.3255
 20
99.3909
 30
0.0
 11
70.3255
 21
93.0356
 31
0.0
  0
LINE
  8
0
 62
     0
 10
70.3255
 20
93.0356
 30
0.0
 11
69.5262
 21
93.0356
 31
0.0
  0
LINE
  8
0
 62
     0
 10
69.5262
 20
93.0356
 30
0.0
 11
69.5262
 21
90.4903
 31
0.0
  0
LINE
  8
0
 62
     0
 10
69.5262
 20
90.4903
 30
0.0
 11
70.3255
 21
90.4903
 31
0.0
  0
LINE
  8
0
 62
     0
 10
70.3255
 20
90.4903
 30
0.0
 11
70.3255
 21
89.4913
 31
0.0
  0
LINE
  8
0
 62
     0
 10
70.3255
 20
89.4913
 30
0.0
 11
83.771
 21
89.4913
 31
0.0
  0
LINE
  8
0
 62
     0
 10
83.771
 20
89.4913
 30
0.0
 11
83.771
 21
90.4903
 31
0.0
  0
LINE
  8
0
 62
     0
 10
83.771
 20
90.4903
 30
0.0
 11
84.5704
 21
90.4903
 31
0.0
  0
LINE
  8
0
 62
     0
 10
84.5704
 20
90.4903
 30
0.0
 11
84.5704
 21
93.0356
 31
0.0
  0
LINE
  8
0
 62
     0
 10
84.5704
 20
93.0356
 30
0.0
 11
83.771
 21
93.0356
 31
0.0
  0
LINE
  8
0
 62
     0
 10
83.771
 20
93.0356
 30
0.0
 11
83.771
 21
99.3909
 31
0.0
  0
LINE
  8
0
 62
     0
 10
83.771
 20
99.3909
 30
0.0
 11
84.5704
 21
99.3909
 31
0.0
  0
LINE
  8
0
 62
     0
 10
84.5704
 20
99.3909
 30
0.0
 11
84.5704
 21
101.936
 31
0.0
  0
LINE
  8
0
 62
     0
 10
84.5704
 20
101.936
 30
0.0
 11
83.771
 21
101.936
 31
0.0
  0
LINE
  8
0
 62
     0
 10
83.771
 20
101.936
 30
0.0
 11
83.771
 21
102.935
 31
0.0
  0
LINE
  8
0
 62
     0
 10
83.771
 20
102.935
 30
0.0
 11
70.3255
 21
102.935
 31
0.0
  0
LINE
  8
0
 62
     0
 10
89.3755
 20
102.935
 30
0.0
 11
89.3755
 21
101.936
 31
0.0
  0
LINE
  8
0
 62
     0
 10
89.3755
 20
101.936
 30
0.0
 11
88.5762
 21
101.936
 31
0.0
  0
LINE
  8
0
 62
     0
 10
88.5762
 20
101.936
 30
0.0
 11
88.5762
 21
99.3909
 31
0.0
  0
LINE
  8
0
 62
     0
 10
88.5762
 20
99.3909
 30
0.0
 11
89.3755
 21
99.3909
 31
0.0
  0
LINE
  8
0
 62
     0
 10
89.3755
 20
99.3909
 30
0.0
 11
89.3755
 21
93.0356
 31
0.0
  0
LINE
  8
0
 62
     0
 10
89.3755
 20
93.0356
 30
0.0
 11
88.5762
 21
93.0356
 31
0.0
  0
LINE
  8
0
 62
     0
 10
88.5762
 20
93.0356
 30
0.0
 11
88.5762
 21
90.4903
 31
0.0
  0
LINE
  8
0
 62
     0
 10
88.5762
 20
90.4903
 30
0.0
 11
89.3755
 21
90.4903
 31
0.0
  0
LINE
  8
0
 62
     0
 10
89.3755
 20
90.4903
 30
0.0
 11
89.3755
 21
89.4913
 31
0.0
  0
LINE
  8
0
 62
     0
 10
89.3755
 20
89.4913
 30
0.0
 11
102.821
 21
89.4913
 31
0.0
  0
LINE
  8
0
 62
     0
 10
102.821
 20
89.4913
 30
0.0
 11
102.821
 21
90.4903
 31
0.0
  0
LINE
  8
0
 62
     0
 10
102.821
 20
90.4903
 30
0.0
 11
103.619
 21
90.4903
 31
0.0
  0
LINE
  8
0
 62
     0
 10
103.619
 20
90.4903
 30
0.0
 11
103.619
 21
93.0356
 31
0.0
  0
LINE
  8
0
 62
     0
 10
103.619
 20
93.0356
 30
0.0
 11
102.821
 21
93.0356
 31
0.0
  0
LINE
  8
0
 62
     0
 10
102.821
 20
93.0356
 30
0.0
 11
102.821
 21
99.3909
 31
0.0
  0
LINE
  8
0
 62
     0
 10
102.821
 20
99.3909
 30
0.0
 11
103.619
 21
99.3909
 31
0.0
  0
LINE
  8
0
 62
     0
 10
103.619
 20
99.3909
 30
0.0
 11
103.619
 21
101.936
 31
0.0
  0
LINE
  8
0
 62
     0
 10
103.619
 20
101.936
 30
0.0
 11
102.821
 21
101.936
 31
0.0
  0
LINE
  8
0
 62
     0
 10
102.821
 20
101.936
 30
0.0
 11
102.821
 21
102.935
 31
0.0
  0
LINE
  8
0
 62
     0
 10
102.821
 20
102.935
 30
0.0
 11
89.3755
 21
102.935
 31
0.0
  0
LINE
  8
0
 62
     0
 10
19.615
 20
127.105
 30
0.0
 11
19.3339
 21
127.072
 31
0.0
  0
LINE
  8
0
 62
     0
 10
19.3339
 20
127.072
 30
0.0
 11
19.0569
 21
127.017
 31
0.0
  0
LINE
  8
0
 62
     0
 10
19.0569
 20
127.017
 30
0.0
 11
18.7854
 21
126.939
 31
0.0
  0
LINE
  8
0
 62
     0
 10
18.7854
 20
126.939
 30
0.0
 11
18.5208
 21
126.842
 31
0.0
  0
LINE
  8
0
 62
     0
 10
18.5208
 20
126.842
 30
0.0
 11
18.2631
 21
126.723
 31
0.0
  0
LINE
  8
0
 62
     0
 10
18.2631
 20
126.723
 30
0.0
 11
18.0178
 21
126.585
 31
0.0
  0
LINE
  8
0
 62
     0
 10
18.0178
 20
126.585
 30
0.0
 11
17.7808
 21
126.428
 31
0.0
  0
LINE
  8
0
 62
     0
 10
17.7808
 20
126.428
 30
0.0
 11
17.5589
 21
126.253
 31
0.0
  0
LINE
  8
0
 62
     0
 10
17.5589
 20
126.253
 30
0.0
 11
17.3523
 21
126.062
 31
0.0
  0
LINE
  8
0
 62
     0
 10
17.3523
 20
126.062
 30
0.0
 11
17.1607
 21
125.855
 31
0.0
  0
LINE
  8
0
 62
     0
 10
17.1607
 20
125.855
 30
0.0
 11
16.9857
 21
125.633
 31
0.0
  0
LINE
  8
0
 62
     0
 10
16.9857
 20
125.633
 30
0.0
 11
16.8286
 21
125.396
 31
0.0
  0
LINE
  8
0
 62
     0
 10
16.8286
 20
125.396
 30
0.0
 11
16.6908
 21
125.151
 31
0.0
  0
LINE
  8
0
 62
     0
 10
16.6908
 20
125.151
 30
0.0
 11
16.5723
 21
124.893
 31
0.0
  0
LINE
  8
0
 62
     0
 10
16.5723
 20
124.893
 30
0.0
 11
16.4744
 21
124.628
 31
0.0
  0
LINE
  8
0
 62
     0
 10
16.4744
 20
124.628
 30
0.0
 11
16.3973
 21
124.357
 31
0.0
  0
LINE
  8
0
 62
     0
 10
16.3973
 20
124.357
 30
0.0
 11
16.3421
 21
124.08
 31
0.0
  0
LINE
  8
0
 62
     0
 10
16.3421
 20
124.08
 30
0.0
 11
16.3091
 21
123.799
 31
0.0
  0
LINE
  8
0
 62
     0
 10
16.3091
 20
123.799
 30
0.0
 11
16.2981
 21
123.515
 31
0.0
  0
LINE
  8
0
 62
     0
 10
16.2981
 20
123.515
 30
0.0
 11
16.3091
 21
123.234
 31
0.0
  0
LINE
  8
0
 62
     0
 10
16.3091
 20
123.234
 30
0.0
 11
16.3421
 21
122.953
 31
0.0
  0
LINE
  8
0
 62
     0
 10
16.3421
 20
122.953
 30
0.0
 11
16.3973
 21
122.676
 31
0.0
  0
LINE
  8
0
 62
     0
 10
16.3973
 20
122.676
 30
0.0
 11
16.4744
 21
122.404
 31
0.0
  0
LINE
  8
0
 62
     0
 10
16.4744
 20
122.404
 30
0.0
 11
16.5723
 21
122.138
 31
0.0
  0
LINE
  8
0
 62
     0
 10
16.5723
 20
122.138
 30
0.0
 11
16.6908
 21
121.882
 31
0.0
  0
LINE
  8
0
 62
     0
 10
16.6908
 20
121.882
 30
0.0
 11
16.8286
 21
121.635
 31
0.0
  0
LINE
  8
0
 62
     0
 10
16.8286
 20
121.635
 30
0.0
 11
16.9857
 21
121.4
 31
0.0
  0
LINE
  8
0
 62
     0
 10
16.9857
 20
121.4
 30
0.0
 11
17.1607
 21
121.178
 31
0.0
  0
LINE
  8
0
 62
     0
 10
17.1607
 20
121.178
 30
0.0
 11
17.3523
 21
120.971
 31
0.0
  0
LINE
  8
0
 62
     0
 10
17.3523
 20
120.971
 30
0.0
 11
17.5589
 21
120.778
 31
0.0
  0
LINE
  8
0
 62
     0
 10
17.5589
 20
120.778
 30
0.0
 11
17.7808
 21
120.603
 31
0.0
  0
LINE
  8
0
 62
     0
 10
17.7808
 20
120.603
 30
0.0
 11
18.0178
 21
120.446
 31
0.0
  0
LINE
  8
0
 62
     0
 10
18.0178
 20
120.446
 30
0.0
 11
18.2631
 21
120.308
 31
0.0
  0
LINE
  8
0
 62
     0
 10
18.2631
 20
120.308
 30
0.0
 11
18.5208
 21
120.191
 31
0.0
  0
LINE
  8
0
 62
     0
 10
18.5208
 20
120.191
 30
0.0
 11
18.7854
 21
120.093
 31
0.0
  0
LINE
  8
0
 62
     0
 10
18.7854
 20
120.093
 30
0.0
 11
19.0569
 21
120.016
 31
0.0
  0
LINE
  8
0
 62
     0
 10
19.0569
 20
120.016
 30
0.0
 11
19.3339
 21
119.961
 31
0.0
  0
LINE
  8
0
 62
     0
 10
19.3339
 20
119.961
 30
0.0
 11
19.615
 21
119.928
 31
0.0
  0
LINE
  8
0
 62
     0
 10
19.615
 20
119.928
 30
0.0
 11
19.8975
 21
119.916
 31
0.0
  0
LINE
  8
0
 62
     0
 10
19.8975
 20
119.916
 30
0.0
 11
20.18
 21
119.928
 31
0.0
  0
LINE
  8
0
 62
     0
 10
20.18
 20
119.928
 30
0.0
 11
20.4611
 21
119.961
 31
0.0
  0
LINE
  8
0
 62
     0
 10
20.4611
 20
119.961
 30
0.0
 11
20.7381
 21
120.016
 31
0.0
  0
LINE
  8
0
 62
     0
 10
20.7381
 20
120.016
 30
0.0
 11
21.011
 21
120.093
 31
0.0
  0
LINE
  8
0
 62
     0
 10
21.011
 20
120.093
 30
0.0
 11
21.2755
 21
120.191
 31
0.0
  0
LINE
  8
0
 62
     0
 10
21.2755
 20
120.191
 30
0.0
 11
21.5319
 21
120.308
 31
0.0
  0
LINE
  8
0
 62
     0
 10
21.5319
 20
120.308
 30
0.0
 11
21.7785
 21
120.446
 31
0.0
  0
LINE
  8
0
 62
     0
 10
21.7785
 20
120.446
 30
0.0
 11
22.0141
 21
120.603
 31
0.0
  0
LINE
  8
0
 62
     0
 10
22.0141
 20
120.603
 30
0.0
 11
22.236
 21
120.778
 31
0.0
  0
LINE
  8
0
 62
     0
 10
22.236
 20
120.778
 30
0.0
 11
22.4441
 21
120.971
 31
0.0
  0
LINE
  8
0
 62
     0
 10
22.4441
 20
120.971
 30
0.0
 11
22.6357
 21
121.178
 31
0.0
  0
LINE
  8
0
 62
     0
 10
22.6357
 20
121.178
 30
0.0
 11
22.8107
 21
121.4
 31
0.0
  0
LINE
  8
0
 62
     0
 10
22.8107
 20
121.4
 30
0.0
 11
22.9678
 21
121.635
 31
0.0
  0
LINE
  8
0
 62
     0
 10
22.9678
 20
121.635
 30
0.0
 11
23.1056
 21
121.882
 31
0.0
  0
LINE
  8
0
 62
     0
 10
23.1056
 20
121.882
 30
0.0
 11
23.2241
 21
122.138
 31
0.0
  0
LINE
  8
0
 62
     0
 10
23.2241
 20
122.138
 30
0.0
 11
23.3219
 21
122.404
 31
0.0
  0
LINE
  8
0
 62
     0
 10
23.3219
 20
122.404
 30
0.0
 11
23.3991
 21
122.676
 31
0.0
  0
LINE
  8
0
 62
     0
 10
23.3991
 20
122.676
 30
0.0
 11
23.4528
 21
122.953
 31
0.0
  0
LINE
  8
0
 62
     0
 10
23.4528
 20
122.953
 30
0.0
 11
23.4859
 21
123.234
 31
0.0
  0
LINE
  8
0
 62
     0
 10
23.4859
 20
123.234
 30
0.0
 11
23.4983
 21
123.515
 31
0.0
  0
LINE
  8
0
 62
     0
 10
23.4983
 20
123.515
 30
0.0
 11
23.4859
 21
123.799
 31
0.0
  0
LINE
  8
0
 62
     0
 10
23.4859
 20
123.799
 30
0.0
 11
23.4528
 21
124.08
 31
0.0
  0
LINE
  8
0
 62
     0
 10
23.4528
 20
124.08
 30
0.0
 11
23.3991
 21
124.357
 31
0.0
  0
LINE
  8
0
 62
     0
 10
23.3991
 20
124.357
 30
0.0
 11
23.3219
 21
124.628
 31
0.0
  0
LINE
  8
0
 62
     0
 10
23.3219
 20
124.628
 30
0.0
 11
23.2241
 21
124.893
 31
0.0
  0
LINE
  8
0
 62
     0
 10
23.2241
 20
124.893
 30
0.0
 11
23.1056
 21
125.151
 31
0.0
  0
LINE
  8
0
 62
     0
 10
23.1056
 20
125.151
 30
0.0
 11
22.9678
 21
125.396
 31
0.0
  0
LINE
  8
0
 62
     0
 10
22.9678
 20
125.396
 30
0.0
 11
22.8107
 21
125.633
 31
0.0
  0
LINE
  8
0
 62
     0
 10
22.8107
 20
125.633
 30
0.0
 11
22.6357
 21
125.855
 31
0.0
  0
LINE
  8
0
 62
     0
 10
22.6357
 20
125.855
 30
0.0
 11
22.4441
 21
126.062
 31
0.0
  0
LINE
  8
0
 62
     0
 10
22.4441
 20
126.062
 30
0.0
 11
22.236
 21
126.253
 31
0.0
  0
LINE
  8
0
 62
     0
 10
22.236
 20
126.253
 30
0.0
 11
22.0141
 21
126.428
 31
0.0
  0
LINE
  8
0
 62
     0
 10
22.0141
 20
126.428
 30
0.0
 11
21.7785
 21
126.585
 31
0.0
  0
LINE
  8
0
 62
     0
 10
21.7785
 20
126.585
 30
0.0
 11
21.5319
 21
126.723
 31
0.0
  0
LINE
  8
0
 62
     0
 10
21.5319
 20
126.723
 30
0.0
 11
21.2755
 21
126.842
 31
0.0
  0
LINE
  8
0
 62
     0
 10
21.2755
 20
126.842
 30
0.0
 11
21.011
 21
126.939
 31
0.0
  0
LINE
  8
0
 62
     0
 10
21.011
 20
126.939
 30
0.0
 11
20.7381
 21
127.017
 31
0.0
  0
LINE
  8
0
 62
     0
 10
20.7381
 20
127.017
 30
0.0
 11
20.4611
 21
127.072
 31
0.0
  0
LINE
  8
0
 62
     0
 10
20.4611
 20
127.072
 30
0.0
 11
20.18
 21
127.105
 31
0.0
  0
LINE
  8
0
 62
     0
 10
20.18
 20
127.105
 30
0.0
 11
19.8975
 21
127.116
 31
0.0
  0
LINE
  8
0
 62
     0
 10
19.8975
 20
127.116
 30
0.0
 11
19.615
 21
127.105
 31
0.0
  0
LINE
  8
0
 62
     0
 10
57.7152
 20
127.105
 30
0.0
 11
57.434
 21
127.072
 31
0.0
  0
LINE
  8
0
 62
     0
 10
57.434
 20
127.072
 30
0.0
 11
57.1571
 21
127.017
 31
0.0
  0
LINE
  8
0
 62
     0
 10
57.1571
 20
127.017
 30
0.0
 11
56.8854
 21
126.939
 31
0.0
  0
LINE
  8
0
 62
     0
 10
56.8854
 20
126.939
 30
0.0
 11
56.6208
 21
126.842
 31
0.0
  0
LINE
  8
0
 62
     0
 10
56.6208
 20
126.842
 30
0.0
 11
56.3633
 21
126.723
 31
0.0
  0
LINE
  8
0
 62
     0
 10
56.3633
 20
126.723
 30
0.0
 11
56.1178
 21
126.585
 31
0.0
  0
LINE
  8
0
 62
     0
 10
56.1178
 20
126.585
 30
0.0
 11
55.8807
 21
126.428
 31
0.0
  0
LINE
  8
0
 62
     0
 10
55.8807
 20
126.428
 30
0.0
 11
55.6588
 21
126.253
 31
0.0
  0
LINE
  8
0
 62
     0
 10
55.6588
 20
126.253
 30
0.0
 11
55.4524
 21
126.062
 31
0.0
  0
LINE
  8
0
 62
     0
 10
55.4524
 20
126.062
 30
0.0
 11
55.2609
 21
125.855
 31
0.0
  0
LINE
  8
0
 62
     0
 10
55.2609
 20
125.855
 30
0.0
 11
55.0855
 21
125.633
 31
0.0
  0
LINE
  8
0
 62
     0
 10
55.0855
 20
125.633
 30
0.0
 11
54.9286
 21
125.396
 31
0.0
  0
LINE
  8
0
 62
     0
 10
54.9286
 20
125.396
 30
0.0
 11
54.791
 21
125.151
 31
0.0
  0
LINE
  8
0
 62
     0
 10
54.791
 20
125.151
 30
0.0
 11
54.6724
 21
124.893
 31
0.0
  0
LINE
  8
0
 62
     0
 10
54.6724
 20
124.893
 30
0.0
 11
54.5744
 21
124.628
 31
0.0
  0
LINE
  8
0
 62
     0
 10
54.5744
 20
124.628
 30
0.0
 11
54.4971
 21
124.357
 31
0.0
  0
LINE
  8
0
 62
     0
 10
54.4971
 20
124.357
 30
0.0
 11
54.4421
 21
124.08
 31
0.0
  0
LINE
  8
0
 62
     0
 10
54.4421
 20
124.08
 30
0.0
 11
54.4089
 21
123.799
 31
0.0
  0
LINE
  8
0
 62
     0
 10
54.4089
 20
123.799
 30
0.0
 11
54.398
 21
123.515
 31
0.0
  0
LINE
  8
0
 62
     0
 10
54.398
 20
123.515
 30
0.0
 11
54.4089
 21
123.234
 31
0.0
  0
LINE
  8
0
 62
     0
 10
54.4089
 20
123.234
 30
0.0
 11
54.4421
 21
122.953
 31
0.0
  0
LINE
  8
0
 62
     0
 10
54.4421
 20
122.953
 30
0.0
 11
54.4971
 21
122.676
 31
0.0
  0
LINE
  8
0
 62
     0
 10
54.4971
 20
122.676
 30
0.0
 11
54.5744
 21
122.404
 31
0.0
  0
LINE
  8
0
 62
     0
 10
54.5744
 20
122.404
 30
0.0
 11
54.6724
 21
122.138
 31
0.0
  0
LINE
  8
0
 62
     0
 10
54.6724
 20
122.138
 30
0.0
 11
54.791
 21
121.882
 31
0.0
  0
LINE
  8
0
 62
     0
 10
54.791
 20
121.882
 30
0.0
 11
54.9286
 21
121.635
 31
0.0
  0
LINE
  8
0
 62
     0
 10
54.9286
 20
121.635
 30
0.0
 11
55.0855
 21
121.4
 31
0.0
  0
LINE
  8
0
 62
     0
 10
55.0855
 20
121.4
 30
0.0
 11
55.2609
 21
121.178
 31
0.0
  0
LINE
  8
0
 62
     0
 10
55.2609
 20
121.178
 30
0.0
 11
55.4524
 21
120.971
 31
0.0
  0
LINE
  8
0
 62
     0
 10
55.4524
 20
120.971
 30
0.0
 11
55.6588
 21
120.778
 31
0.0
  0
LINE
  8
0
 62
     0
 10
55.6588
 20
120.778
 30
0.0
 11
55.8807
 21
120.603
 31
0.0
  0
LINE
  8
0
 62
     0
 10
55.8807
 20
120.603
 30
0.0
 11
56.1178
 21
120.446
 31
0.0
  0
LINE
  8
0
 62
     0
 10
56.1178
 20
120.446
 30
0.0
 11
56.3633
 21
120.308
 31
0.0
  0
LINE
  8
0
 62
     0
 10
56.3633
 20
120.308
 30
0.0
 11
56.6208
 21
120.191
 31
0.0
  0
LINE
  8
0
 62
     0
 10
56.6208
 20
120.191
 30
0.0
 11
56.8854
 21
120.093
 31
0.0
  0
LINE
  8
0
 62
     0
 10
56.8854
 20
120.093
 30
0.0
 11
57.1571
 21
120.016
 31
0.0
  0
LINE
  8
0
 62
     0
 10
57.1571
 20
120.016
 30
0.0
 11
57.434
 21
119.961
 31
0.0
  0
LINE
  8
0
 62
     0
 10
57.434
 20
119.961
 30
0.0
 11
57.7152
 21
119.928
 31
0.0
  0
LINE
  8
0
 62
     0
 10
57.7152
 20
119.928
 30
0.0
 11
57.9988
 21
119.916
 31
0.0
  0
LINE
  8
0
 62
     0
 10
57.9988
 20
119.916
 30
0.0
 11
58.2799
 21
119.928
 31
0.0
  0
LINE
  8
0
 62
     0
 10
58.2799
 20
119.928
 30
0.0
 11
58.5611
 21
119.961
 31
0.0
  0
LINE
  8
0
 62
     0
 10
58.5611
 20
119.961
 30
0.0
 11
58.838
 21
120.016
 31
0.0
  0
LINE
  8
0
 62
     0
 10
58.838
 20
120.016
 30
0.0
 11
59.1111
 21
120.093
 31
0.0
  0
LINE
  8
0
 62
     0
 10
59.1111
 20
120.093
 30
0.0
 11
59.3757
 21
120.191
 31
0.0
  0
LINE
  8
0
 62
     0
 10
59.3757
 20
120.191
 30
0.0
 11
59.6318
 21
120.308
 31
0.0
  0
LINE
  8
0
 62
     0
 10
59.6318
 20
120.308
 30
0.0
 11
59.8784
 21
120.446
 31
0.0
  0
LINE
  8
0
 62
     0
 10
59.8784
 20
120.446
 30
0.0
 11
60.114
 21
120.603
 31
0.0
  0
LINE
  8
0
 62
     0
 10
60.114
 20
120.603
 30
0.0
 11
60.3359
 21
120.778
 31
0.0
  0
LINE
  8
0
 62
     0
 10
60.3359
 20
120.778
 30
0.0
 11
60.5427
 21
120.971
 31
0.0
  0
LINE
  8
0
 62
     0
 10
60.5427
 20
120.971
 30
0.0
 11
60.7356
 21
121.178
 31
0.0
  0
LINE
  8
0
 62
     0
 10
60.7356
 20
121.178
 30
0.0
 11
60.9106
 21
121.4
 31
0.0
  0
LINE
  8
0
 62
     0
 10
60.9106
 20
121.4
 30
0.0
 11
61.0676
 21
121.635
 31
0.0
  0
LINE
  8
0
 62
     0
 10
61.0676
 20
121.635
 30
0.0
 11
61.2055
 21
121.882
 31
0.0
  0
LINE
  8
0
 62
     0
 10
61.2055
 20
121.882
 30
0.0
 11
61.3241
 21
122.138
 31
0.0
  0
LINE
  8
0
 62
     0
 10
61.3241
 20
122.138
 30
0.0
 11
61.4218
 21
122.404
 31
0.0
  0
LINE
  8
0
 62
     0
 10
61.4218
 20
122.404
 30
0.0
 11
61.499
 21
122.676
 31
0.0
  0
LINE
  8
0
 62
     0
 10
61.499
 20
122.676
 30
0.0
 11
61.5527
 21
122.953
 31
0.0
  0
LINE
  8
0
 62
     0
 10
61.5527
 20
122.953
 30
0.0
 11
61.5858
 21
123.234
 31
0.0
  0
LINE
  8
0
 62
     0
 10
61.5858
 20
123.234
 30
0.0
 11
61.5982
 21
123.515
 31
0.0
  0
LINE
  8
0
 62
     0
 10
61.5982
 20
123.515
 30
0.0
 11
61.5858
 21
123.799
 31
0.0
  0
LINE
  8
0
 62
     0
 10
61.5858
 20
123.799
 30
0.0
 11
61.5527
 21
124.08
 31
0.0
  0
LINE
  8
0
 62
     0
 10
61.5527
 20
124.08
 30
0.0
 11
61.499
 21
124.357
 31
0.0
  0
LINE
  8
0
 62
     0
 10
61.499
 20
124.357
 30
0.0
 11
61.4218
 21
124.628
 31
0.0
  0
LINE
  8
0
 62
     0
 10
61.4218
 20
124.628
 30
0.0
 11
61.3241
 21
124.893
 31
0.0
  0
LINE
  8
0
 62
     0
 10
61.3241
 20
124.893
 30
0.0
 11
61.2055
 21
125.151
 31
0.0
  0
LINE
  8
0
 62
     0
 10
61.2055
 20
125.151
 30
0.0
 11
61.0676
 21
125.396
 31
0.0
  0
LINE
  8
0
 62
     0
 10
61.0676
 20
125.396
 30
0.0
 11
60.9106
 21
125.633
 31
0.0
  0
LINE
  8
0
 62
     0
 10
60.9106
 20
125.633
 30
0.0
 11
60.7356
 21
125.855
 31
0.0
  0
LINE
  8
0
 62
     0
 10
60.7356
 20
125.855
 30
0.0
 11
60.5427
 21
126.062
 31
0.0
  0
LINE
  8
0
 62
     0
 10
60.5427
 20
126.062
 30
0.0
 11
60.3359
 21
126.253
 31
0.0
  0
LINE
  8
0
 62
     0
 10
60.3359
 20
126.253
 30
0.0
 11
60.114
 21
126.428
 31
0.0
  0
LINE
  8
0
 62
     0
 10
60.114
 20
126.428
 30
0.0
 11
59.8784
 21
126.585
 31
0.0
  0
LINE
  8
0
 62
     0
 10
59.8784
 20
126.585
 30
0.0
 11
59.6318
 21
126.723
 31
0.0
  0
LINE
  8
0
 62
     0
 10
59.6318
 20
126.723
 30
0.0
 11
59.3757
 21
126.842
 31
0.0
  0
LINE
  8
0
 62
     0
 10
59.3757
 20
126.842
 30
0.0
 11
59.1111
 21
126.939
 31
0.0
  0
LINE
  8
0
 62
     0
 10
59.1111
 20
126.939
 30
0.0
 11
58.838
 21
127.017
 31
0.0
  0
LINE
  8
0
 62
     0
 10
58.838
 20
127.017
 30
0.0
 11
58.5611
 21
127.072
 31
0.0
  0
LINE
  8
0
 62
     0
 10
58.5611
 20
127.072
 30
0.0
 11
58.2799
 21
127.105
 31
0.0
  0
LINE
  8
0
 62
     0
 10
58.2799
 20
127.105
 30
0.0
 11
57.9988
 21
127.116
 31
0.0
  0
LINE
  8
0
 62
     0
 10
57.9988
 20
127.116
 30
0.0
 11
57.7152
 21
127.105
 31
0.0
  0
LINE
  8
0
 62
     0
 10
95.8151
 20
127.105
 30
0.0
 11
95.534
 21
127.072
 31
0.0
  0
LINE
  8
0
 62
     0
 10
95.534
 20
127.072
 30
0.0
 11
95.2571
 21
127.017
 31
0.0
  0
LINE
  8
0
 62
     0
 10
95.2571
 20
127.017
 30
0.0
 11
94.9854
 21
126.939
 31
0.0
  0
LINE
  8
0
 62
     0
 10
94.9854
 20
126.939
 30
0.0
 11
94.7208
 21
126.842
 31
0.0
  0
LINE
  8
0
 62
     0
 10
94.7208
 20
126.842
 30
0.0
 11
94.4633
 21
126.723
 31
0.0
  0
LINE
  8
0
 62
     0
 10
94.4633
 20
126.723
 30
0.0
 11
94.2178
 21
126.585
 31
0.0
  0
LINE
  8
0
 62
     0
 10
94.2178
 20
126.585
 30
0.0
 11
93.9807
 21
126.428
 31
0.0
  0
LINE
  8
0
 62
     0
 10
93.9807
 20
126.428
 30
0.0
 11
93.7588
 21
126.253
 31
0.0
  0
LINE
  8
0
 62
     0
 10
93.7588
 20
126.253
 30
0.0
 11
93.5524
 21
126.062
 31
0.0
  0
LINE
  8
0
 62
     0
 10
93.5524
 20
126.062
 30
0.0
 11
93.3609
 21
125.855
 31
0.0
  0
LINE
  8
0
 62
     0
 10
93.3609
 20
125.855
 30
0.0
 11
93.1855
 21
125.633
 31
0.0
  0
LINE
  8
0
 62
     0
 10
93.1855
 20
125.633
 30
0.0
 11
93.0286
 21
125.396
 31
0.0
  0
LINE
  8
0
 62
     0
 10
93.0286
 20
125.396
 30
0.0
 11
92.891
 21
125.151
 31
0.0
  0
LINE
  8
0
 62
     0
 10
92.891
 20
125.151
 30
0.0
 11
92.7724
 21
124.893
 31
0.0
  0
LINE
  8
0
 62
     0
 10
92.7724
 20
124.893
 30
0.0
 11
92.6744
 21
124.628
 31
0.0
  0
LINE
  8
0
 62
     0
 10
92.6744
 20
124.628
 30
0.0
 11
92.5971
 21
124.357
 31
0.0
  0
LINE
  8
0
 62
     0
 10
92.5971
 20
124.357
 30
0.0
 11
92.5421
 21
124.08
 31
0.0
  0
LINE
  8
0
 62
     0
 10
92.5421
 20
124.08
 30
0.0
 11
92.5089
 21
123.799
 31
0.0
  0
LINE
  8
0
 62
     0
 10
92.5089
 20
123.799
 30
0.0
 11
92.498
 21
123.515
 31
0.0
  0
LINE
  8
0
 62
     0
 10
92.498
 20
123.515
 30
0.0
 11
92.5089
 21
123.234
 31
0.0
  0
LINE
  8
0
 62
     0
 10
92.5089
 20
123.234
 30
0.0
 11
92.5421
 21
122.953
 31
0.0
  0
LINE
  8
0
 62
     0
 10
92.5421
 20
122.953
 30
0.0
 11
92.5971
 21
122.676
 31
0.0
  0
LINE
  8
0
 62
     0
 10
92.5971
 20
122.676
 30
0.0
 11
92.6744
 21
122.404
 31
0.0
  0
LINE
  8
0
 62
     0
 10
92.6744
 20
122.404
 30
0.0
 11
92.7724
 21
122.138
 31
0.0
  0
LINE
  8
0
 62
     0
 10
92.7724
 20
122.138
 30
0.0
 11
92.891
 21
121.882
 31
0.0
  0
LINE
  8
0
 62
     0
 10
92.891
 20
121.882
 30
0.0
 11
93.0286
 21
121.635
 31
0.0
  0
LINE
  8
0
 62
     0
 10
93.0286
 20
121.635
 30
0.0
 11
93.1855
 21
121.4
 31
0.0
  0
LINE
  8
0
 62
     0
 10
93.1855
 20
121.4
 30
0.0
 11
93.3609
 21
121.178
 31
0.0
  0
LINE
  8
0
 62
     0
 10
93.3609
 20
121.178
 30
0.0
 11
93.5524
 21
120.971
 31
0.0
  0
LINE
  8
0
 62
     0
 10
93.5524
 20
120.971
 30
0.0
 11
93.7588
 21
120.778
 31
0.0
  0
LINE
  8
0
 62
     0
 10
93.7588
 20
120.778
 30
0.0
 11
93.9807
 21
120.603
 31
0.0
  0
LINE
  8
0
 62
     0
 10
93.9807
 20
120.603
 30
0.0
 11
94.2178
 21
120.446
 31
0.0
  0
LINE
  8
0
 62
     0
 10
94.2178
 20
120.446
 30
0.0
 11
94.4633
 21
120.308
 31
0.0
  0
LINE
  8
0
 62
     0
 10
94.4633
 20
120.308
 30
0.0
 11
94.7208
 21
120.191
 31
0.0
  0
LINE
  8
0
 62
     0
 10
94.7208
 20
120.191
 30
0.0
 11
94.9854
 21
120.093
 31
0.0
  0
LINE
  8
0
 62
     0
 10
94.9854
 20
120.093
 30
0.0
 11
95.2571
 21
120.016
 31
0.0
  0
LINE
  8
0
 62
     0
 10
95.2571
 20
120.016
 30
0.0
 11
95.534
 21
119.961
 31
0.0
  0
LINE
  8
0
 62
     0
 10
95.534
 20
119.961
 30
0.0
 11
95.8151
 21
119.928
 31
0.0
  0
LINE
  8
0
 62
     0
 10
95.8151
 20
119.928
 30
0.0
 11
96.0988
 21
119.916
 31
0.0
  0
LINE
  8
0
 62
     0
 10
96.0988
 20
119.916
 30
0.0
 11
96.3799
 21
119.928
 31
0.0
  0
LINE
  8
0
 62
     0
 10
96.3799
 20
119.928
 30
0.0
 11
96.6611
 21
119.961
 31
0.0
  0
LINE
  8
0
 62
     0
 10
96.6611
 20
119.961
 30
0.0
 11
96.938
 21
120.016
 31
0.0
  0
LINE
  8
0
 62
     0
 10
96.938
 20
120.016
 30
0.0
 11
97.2111
 21
120.093
 31
0.0
  0
LINE
  8
0
 62
     0
 10
97.2111
 20
120.093
 30
0.0
 11
97.4757
 21
120.191
 31
0.0
  0
LINE
  8
0
 62
     0
 10
97.4757
 20
120.191
 30
0.0
 11
97.7318
 21
120.308
 31
0.0
  0
LINE
  8
0
 62
     0
 10
97.7318
 20
120.308
 30
0.0
 11
97.9784
 21
120.446
 31
0.0
  0
LINE
  8
0
 62
     0
 10
97.9784
 20
120.446
 30
0.0
 11
98.214
 21
120.603
 31
0.0
  0
LINE
  8
0
 62
     0
 10
98.214
 20
120.603
 30
0.0
 11
98.4359
 21
120.778
 31
0.0
  0
LINE
  8
0
 62
     0
 10
98.4359
 20
120.778
 30
0.0
 11
98.6441
 21
120.971
 31
0.0
  0
LINE
  8
0
 62
     0
 10
98.6441
 20
120.971
 30
0.0
 11
98.8356
 21
121.178
 31
0.0
  0
LINE
  8
0
 62
     0
 10
98.8356
 20
121.178
 30
0.0
 11
99.0106
 21
121.4
 31
0.0
  0
LINE
  8
0
 62
     0
 10
99.0106
 20
121.4
 30
0.0
 11
99.1676
 21
121.635
 31
0.0
  0
LINE
  8
0
 62
     0
 10
99.1676
 20
121.635
 30
0.0
 11
99.3055
 21
121.882
 31
0.0
  0
LINE
  8
0
 62
     0
 10
99.3055
 20
121.882
 30
0.0
 11
99.4241
 21
122.138
 31
0.0
  0
LINE
  8
0
 62
     0
 10
99.4241
 20
122.138
 30
0.0
 11
99.5218
 21
122.404
 31
0.0
  0
LINE
  8
0
 62
     0
 10
99.5218
 20
122.404
 30
0.0
 11
99.599
 21
122.676
 31
0.0
  0
LINE
  8
0
 62
     0
 10
99.599
 20
122.676
 30
0.0
 11
99.6527
 21
122.953
 31
0.0
  0
LINE
  8
0
 62
     0
 10
99.6527
 20
122.953
 30
0.0
 11
99.6858
 21
123.234
 31
0.0
  0
LINE
  8
0
 62
     0
 10
99.6858
 20
123.234
 30
0.0
 11
99.6982
 21
123.515
 31
0.0
  0
LINE
  8
0
 62
     0
 10
99.6982
 20
123.515
 30
0.0
 11
99.6858
 21
123.799
 31
0.0
  0
LINE
  8
0
 62
     0
 10
99.6858
 20
123.799
 30
0.0
 11
99.6527
 21
124.08
 31
0.0
  0
LINE
  8
0
 62
     0
 10
99.6527
 20
124.08
 30
0.0
 11
99.599
 21
124.357
 31
0.0
  0
LINE
  8
0
 62
     0
 10
99.599
 20
124.357
 30
0.0
 11
99.5218
 21
124.628
 31
0.0
  0
LINE
  8
0
 62
     0
 10
99.5218
 20
124.628
 30
0.0
 11
99.4241
 21
124.893
 31
0.0
  0
LINE
  8
0
 62
     0
 10
99.4241
 20
124.893
 30
0.0
 11
99.3055
 21
125.151
 31
0.0
  0
LINE
  8
0
 62
     0
 10
99.3055
 20
125.151
 30
0.0
 11
99.1676
 21
125.396
 31
0.0
  0
LINE
  8
0
 62
     0
 10
99.1676
 20
125.396
 30
0.0
 11
99.0106
 21
125.633
 31
0.0
  0
LINE
  8
0
 62
     0
 10
99.0106
 20
125.633
 30
0.0
 11
98.8356
 21
125.855
 31
0.0
  0
LINE
  8
0
 62
     0
 10
98.8356
 20
125.855
 30
0.0
 11
98.6441
 21
126.062
 31
0.0
  0
LINE
  8
0
 62
     0
 10
98.6441
 20
126.062
 30
0.0
 11
98.4359
 21
126.253
 31
0.0
  0
LINE
  8
0
 62
     0
 10
98.4359
 20
126.253
 30
0.0
 11
98.214
 21
126.428
 31
0.0
  0
LINE
  8
0
 62
     0
 10
98.214
 20
126.428
 30
0.0
 11
97.9784
 21
126.585
 31
0.0
  0
LINE
  8
0
 62
     0
 10
97.9784
 20
126.585
 30
0.0
 11
97.7318
 21
126.723
 31
0.0
  0
LINE
  8
0
 62
     0
 10
97.7318
 20
126.723
 30
0.0
 11
97.4757
 21
126.842
 31
0.0
  0
LINE
  8
0
 62
     0
 10
97.4757
 20
126.842
 30
0.0
 11
97.2111
 21
126.939
 31
0.0
  0
LINE
  8
0
 62
     0
 10
97.2111
 20
126.939
 30
0.0
 11
96.938
 21
127.017
 31
0.0
  0
LINE
  8
0
 62
     0
 10
96.938
 20
127.017
 30
0.0
 11
96.6611
 21
127.072
 31
0.0
  0
LINE
  8
0
 62
     0
 10
96.6611
 20
127.072
 30
0.0
 11
96.3799
 21
127.105
 31
0.0
  0
LINE
  8
0
 62
     0
 10
96.3799
 20
127.105
 30
0.0
 11
96.0988
 21
127.116
 31
0.0
  0
LINE
  8
0
 62
     0
 10
96.0988
 20
127.116
 30
0.0
 11
95.8151
 21
127.105
 31
0.0
  0
LINE
  8
0
 62
     0
 10
38.6651
 20
127.105
 30
0.0
 11
38.384
 21
127.072
 31
0.0
  0
LINE
  8
0
 62
     0
 10
38.384
 20
127.072
 30
0.0
 11
38.1071
 21
127.017
 31
0.0
  0
LINE
  8
0
 62
     0
 10
38.1071
 20
127.017
 30
0.0
 11
37.8354
 21
126.939
 31
0.0
  0
LINE
  8
0
 62
     0
 10
37.8354
 20
126.939
 30
0.0
 11
37.5708
 21
126.842
 31
0.0
  0
LINE
  8
0
 62
     0
 10
37.5708
 20
126.842
 30
0.0
 11
37.3133
 21
126.723
 31
0.0
  0
LINE
  8
0
 62
     0
 10
37.3133
 20
126.723
 30
0.0
 11
37.0678
 21
126.585
 31
0.0
  0
LINE
  8
0
 62
     0
 10
37.0678
 20
126.585
 30
0.0
 11
36.8307
 21
126.428
 31
0.0
  0
LINE
  8
0
 62
     0
 10
36.8307
 20
126.428
 30
0.0
 11
36.6088
 21
126.253
 31
0.0
  0
LINE
  8
0
 62
     0
 10
36.6088
 20
126.253
 30
0.0
 11
36.4024
 21
126.062
 31
0.0
  0
LINE
  8
0
 62
     0
 10
36.4024
 20
126.062
 30
0.0
 11
36.2109
 21
125.855
 31
0.0
  0
LINE
  8
0
 62
     0
 10
36.2109
 20
125.855
 30
0.0
 11
36.0355
 21
125.633
 31
0.0
  0
LINE
  8
0
 62
     0
 10
36.0355
 20
125.633
 30
0.0
 11
35.8786
 21
125.396
 31
0.0
  0
LINE
  8
0
 62
     0
 10
35.8786
 20
125.396
 30
0.0
 11
35.741
 21
125.151
 31
0.0
  0
LINE
  8
0
 62
     0
 10
35.741
 20
125.151
 30
0.0
 11
35.6224
 21
124.893
 31
0.0
  0
LINE
  8
0
 62
     0
 10
35.6224
 20
124.893
 30
0.0
 11
35.5244
 21
124.628
 31
0.0
  0
LINE
  8
0
 62
     0
 10
35.5244
 20
124.628
 30
0.0
 11
35.4471
 21
124.357
 31
0.0
  0
LINE
  8
0
 62
     0
 10
35.4471
 20
124.357
 30
0.0
 11
35.3921
 21
124.08
 31
0.0
  0
LINE
  8
0
 62
     0
 10
35.3921
 20
124.08
 30
0.0
 11
35.3589
 21
123.799
 31
0.0
  0
LINE
  8
0
 62
     0
 10
35.3589
 20
123.799
 30
0.0
 11
35.348
 21
123.515
 31
0.0
  0
LINE
  8
0
 62
     0
 10
35.348
 20
123.515
 30
0.0
 11
35.3589
 21
123.234
 31
0.0
  0
LINE
  8
0
 62
     0
 10
35.3589
 20
123.234
 30
0.0
 11
35.3921
 21
122.953
 31
0.0
  0
LINE
  8
0
 62
     0
 10
35.3921
 20
122.953
 30
0.0
 11
35.4471
 21
122.676
 31
0.0
  0
LINE
  8
0
 62
     0
 10
35.4471
 20
122.676
 30
0.0
 11
35.5244
 21
122.404
 31
0.0
  0
LINE
  8
0
 62
     0
 10
35.5244
 20
122.404
 30
0.0
 11
35.6224
 21
122.138
 31
0.0
  0
LINE
  8
0
 62
     0
 10
35.6224
 20
122.138
 30
0.0
 11
35.741
 21
121.882
 31
0.0
  0
LINE
  8
0
 62
     0
 10
35.741
 20
121.882
 30
0.0
 11
35.8786
 21
121.635
 31
0.0
  0
LINE
  8
0
 62
     0
 10
35.8786
 20
121.635
 30
0.0
 11
36.0355
 21
121.4
 31
0.0
  0
LINE
  8
0
 62
     0
 10
36.0355
 20
121.4
 30
0.0
 11
36.2109
 21
121.178
 31
0.0
  0
LINE
  8
0
 62
     0
 10
36.2109
 20
121.178
 30
0.0
 11
36.4024
 21
120.971
 31
0.0
  0
LINE
  8
0
 62
     0
 10
36.4024
 20
120.971
 30
0.0
 11
36.6088
 21
120.778
 31
0.0
  0
LINE
  8
0
 62
     0
 10
36.6088
 20
120.778
 30
0.0
 11
36.8307
 21
120.603
 31
0.0
  0
LINE
  8
0
 62
     0
 10
36.8307
 20
120.603
 30
0.0
 11
37.0678
 21
120.446
 31
0.0
  0
LINE
  8
0
 62
     0
 10
37.0678
 20
120.446
 30
0.0
 11
37.3133
 21
120.308
 31
0.0
  0
LINE
  8
0
 62
     0
 10
37.3133
 20
120.308
 30
0.0
 11
37.5708
 21
120.191
 31
0.0
  0
LINE
  8
0
 62
     0
 10
37.5708
 20
120.191
 30
0.0
 11
37.8354
 21
120.093
 31
0.0
  0
LINE
  8
0
 62
     0
 10
37.8354
 20
120.093
 30
0.0
 11
38.1071
 21
120.016
 31
0.0
  0
LINE
  8
0
 62
     0
 10
38.1071
 20
120.016
 30
0.0
 11
38.384
 21
119.961
 31
0.0
  0
LINE
  8
0
 62
     0
 10
38.384
 20
119.961
 30
0.0
 11
38.6651
 21
119.928
 31
0.0
  0
LINE
  8
0
 62
     0
 10
38.6651
 20
119.928
 30
0.0
 11
38.9474
 21
119.916
 31
0.0
  0
LINE
  8
0
 62
     0
 10
38.9474
 20
119.916
 30
0.0
 11
39.2299
 21
119.928
 31
0.0
  0
LINE
  8
0
 62
     0
 10
39.2299
 20
119.928
 30
0.0
 11
39.5111
 21
119.961
 31
0.0
  0
LINE
  8
0
 62
     0
 10
39.5111
 20
119.961
 30
0.0
 11
39.788
 21
120.016
 31
0.0
  0
LINE
  8
0
 62
     0
 10
39.788
 20
120.016
 30
0.0
 11
40.0611
 21
120.093
 31
0.0
  0
LINE
  8
0
 62
     0
 10
40.0611
 20
120.093
 30
0.0
 11
40.3257
 21
120.191
 31
0.0
  0
LINE
  8
0
 62
     0
 10
40.3257
 20
120.191
 30
0.0
 11
40.5818
 21
120.308
 31
0.0
  0
LINE
  8
0
 62
     0
 10
40.5818
 20
120.308
 30
0.0
 11
40.8284
 21
120.446
 31
0.0
  0
LINE
  8
0
 62
     0
 10
40.8284
 20
120.446
 30
0.0
 11
41.064
 21
120.603
 31
0.0
  0
LINE
  8
0
 62
     0
 10
41.064
 20
120.603
 30
0.0
 11
41.2859
 21
120.778
 31
0.0
  0
LINE
  8
0
 62
     0
 10
41.2859
 20
120.778
 30
0.0
 11
41.4941
 21
120.971
 31
0.0
  0
LINE
  8
0
 62
     0
 10
41.4941
 20
120.971
 30
0.0
 11
41.6856
 21
121.178
 31
0.0
  0
LINE
  8
0
 62
     0
 10
41.6856
 20
121.178
 30
0.0
 11
41.8606
 21
121.4
 31
0.0
  0
LINE
  8
0
 62
     0
 10
41.8606
 20
121.4
 30
0.0
 11
42.0176
 21
121.635
 31
0.0
  0
LINE
  8
0
 62
     0
 10
42.0176
 20
121.635
 30
0.0
 11
42.1555
 21
121.882
 31
0.0
  0
LINE
  8
0
 62
     0
 10
42.1555
 20
121.882
 30
0.0
 11
42.2741
 21
122.138
 31
0.0
  0
LINE
  8
0
 62
     0
 10
42.2741
 20
122.138
 30
0.0
 11
42.3718
 21
122.404
 31
0.0
  0
LINE
  8
0
 62
     0
 10
42.3718
 20
122.404
 30
0.0
 11
42.449
 21
122.676
 31
0.0
  0
LINE
  8
0
 62
     0
 10
42.449
 20
122.676
 30
0.0
 11
42.5027
 21
122.953
 31
0.0
  0
LINE
  8
0
 62
     0
 10
42.5027
 20
122.953
 30
0.0
 11
42.5358
 21
123.234
 31
0.0
  0
LINE
  8
0
 62
     0
 10
42.5358
 20
123.234
 30
0.0
 11
42.5482
 21
123.515
 31
0.0
  0
LINE
  8
0
 62
     0
 10
42.5482
 20
123.515
 30
0.0
 11
42.5358
 21
123.799
 31
0.0
  0
LINE
  8
0
 62
     0
 10
42.5358
 20
123.799
 30
0.0
 11
42.5027
 21
124.08
 31
0.0
  0
LINE
  8
0
 62
     0
 10
42.5027
 20
124.08
 30
0.0
 11
42.449
 21
124.357
 31
0.0
  0
LINE
  8
0
 62
     0
 10
42.449
 20
124.357
 30
0.0
 11
42.3718
 21
124.628
 31
0.0
  0
LINE
  8
0
 62
     0
 10
42.3718
 20
124.628
 30
0.0
 11
42.2741
 21
124.893
 31
0.0
  0
LINE
  8
0
 62
     0
 10
42.2741
 20
124.893
 30
0.0
 11
42.1555
 21
125.151
 31
0.0
  0
LINE
  8
0
 62
     0
 10
42.1555
 20
125.151
 30
0.0
 11
42.0176
 21
125.396
 31
0.0
  0
LINE
  8
0
 62
     0
 10
42.0176
 20
125.396
 30
0.0
 11
41.8606
 21
125.633
 31
0.0
  0
LINE
  8
0
 62
     0
 10
41.8606
 20
125.633
 30
0.0
 11
41.6856
 21
125.855
 31
0.0
  0
LINE
  8
0
 62
     0
 10
41.6856
 20
125.855
 30
0.0
 11
41.4941
 21
126.062
 31
0.0
  0
LINE
  8
0
 62
     0
 10
41.4941
 20
126.062
 30
0.0
 11
41.2859
 21
126.253
 31
0.0
  0
LINE
  8
0
 62
     0
 10
41.2859
 20
126.253
 30
0.0
 11
41.064
 21
126.428
 31
0.0
  0
LINE
  8
0
 62
     0
 10
41.064
 20
126.428
 30
0.0
 11
40.8284
 21
126.585
 31
0.0
  0
LINE
  8
0
 62
     0
 10
40.8284
 20
126.585
 30
0.0
 11
40.5818
 21
126.723
 31
0.0
  0
LINE
  8
0
 62
     0
 10
40.5818
 20
126.723
 30
0.0
 11
40.3257
 21
126.842
 31
0.0
  0
LINE
  8
0
 62
     0
 10
40.3257
 20
126.842
 30
0.0
 11
40.0611
 21
126.939
 31
0.0
  0
LINE
  8
0
 62
     0
 10
40.0611
 20
126.939
 30
0.0
 11
39.788
 21
127.017
 31
0.0
  0
LINE
  8
0
 62
     0
 10
39.788
 20
127.017
 30
0.0
 11
39.5111
 21
127.072
 31
0.0
  0
LINE
  8
0
 62
     0
 10
39.5111
 20
127.072
 30
0.0
 11
39.2299
 21
127.105
 31
0.0
  0
LINE
  8
0
 62
     0
 10
39.2299
 20
127.105
 30
0.0
 11
38.9474
 21
127.116
 31
0.0
  0
LINE
  8
0
 62
     0
 10
38.9474
 20
127.116
 30
0.0
 11
38.6651
 21
127.105
 31
0.0
  0
LINE
  8
0
 62
     0
 10
76.7652
 20
127.105
 30
0.0
 11
76.484
 21
127.072
 31
0.0
  0
LINE
  8
0
 62
     0
 10
76.484
 20
127.072
 30
0.0
 11
76.2071
 21
127.017
 31
0.0
  0
LINE
  8
0
 62
     0
 10
76.2071
 20
127.017
 30
0.0
 11
75.9354
 21
126.939
 31
0.0
  0
LINE
  8
0
 62
     0
 10
75.9354
 20
126.939
 30
0.0
 11
75.6708
 21
126.842
 31
0.0
  0
LINE
  8
0
 62
     0
 10
75.6708
 20
126.842
 30
0.0
 11
75.4133
 21
126.723
 31
0.0
  0
LINE
  8
0
 62
     0
 10
75.4133
 20
126.723
 30
0.0
 11
75.1678
 21
126.585
 31
0.0
  0
LINE
  8
0
 62
     0
 10
75.1678
 20
126.585
 30
0.0
 11
74.9307
 21
126.428
 31
0.0
  0
LINE
  8
0
 62
     0
 10
74.9307
 20
126.428
 30
0.0
 11
74.7088
 21
126.253
 31
0.0
  0
LINE
  8
0
 62
     0
 10
74.7088
 20
126.253
 30
0.0
 11
74.5024
 21
126.062
 31
0.0
  0
LINE
  8
0
 62
     0
 10
74.5024
 20
126.062
 30
0.0
 11
74.3109
 21
125.855
 31
0.0
  0
LINE
  8
0
 62
     0
 10
74.3109
 20
125.855
 30
0.0
 11
74.1355
 21
125.633
 31
0.0
  0
LINE
  8
0
 62
     0
 10
74.1355
 20
125.633
 30
0.0
 11
73.9786
 21
125.396
 31
0.0
  0
LINE
  8
0
 62
     0
 10
73.9786
 20
125.396
 30
0.0
 11
73.841
 21
125.151
 31
0.0
  0
LINE
  8
0
 62
     0
 10
73.841
 20
125.151
 30
0.0
 11
73.7224
 21
124.893
 31
0.0
  0
LINE
  8
0
 62
     0
 10
73.7224
 20
124.893
 30
0.0
 11
73.6244
 21
124.628
 31
0.0
  0
LINE
  8
0
 62
     0
 10
73.6244
 20
124.628
 30
0.0
 11
73.5471
 21
124.357
 31
0.0
  0
LINE
  8
0
 62
     0
 10
73.5471
 20
124.357
 30
0.0
 11
73.4921
 21
124.08
 31
0.0
  0
LINE
  8
0
 62
     0
 10
73.4921
 20
124.08
 30
0.0
 11
73.4589
 21
123.799
 31
0.0
  0
LINE
  8
0
 62
     0
 10
73.4589
 20
123.799
 30
0.0
 11
73.448
 21
123.515
 31
0.0
  0
LINE
  8
0
 62
     0
 10
73.448
 20
123.515
 30
0.0
 11
73.4589
 21
123.234
 31
0.0
  0
LINE
  8
0
 62
     0
 10
73.4589
 20
123.234
 30
0.0
 11
73.4921
 21
122.953
 31
0.0
  0
LINE
  8
0
 62
     0
 10
73.4921
 20
122.953
 30
0.0
 11
73.5471
 21
122.676
 31
0.0
  0
LINE
  8
0
 62
     0
 10
73.5471
 20
122.676
 30
0.0
 11
73.6244
 21
122.404
 31
0.0
  0
LINE
  8
0
 62
     0
 10
73.6244
 20
122.404
 30
0.0
 11
73.7224
 21
122.138
 31
0.0
  0
LINE
  8
0
 62
     0
 10
73.7224
 20
122.138
 30
0.0
 11
73.841
 21
121.882
 31
0.0
  0
LINE
  8
0
 62
     0
 10
73.841
 20
121.882
 30
0.0
 11
73.9786
 21
121.635
 31
0.0
  0
LINE
  8
0
 62
     0
 10
73.9786
 20
121.635
 30
0.0
 11
74.1355
 21
121.4
 31
0.0
  0
LINE
  8
0
 62
     0
 10
74.1355
 20
121.4
 30
0.0
 11
74.3109
 21
121.178
 31
0.0
  0
LINE
  8
0
 62
     0
 10
74.3109
 20
121.178
 30
0.0
 11
74.5024
 21
120.971
 31
0.0
  0
LINE
  8
0
 62
     0
 10
74.5024
 20
120.971
 30
0.0
 11
74.7088
 21
120.778
 31
0.0
  0
LINE
  8
0
 62
     0
 10
74.7088
 20
120.778
 30
0.0
 11
74.9307
 21
120.603
 31
0.0
  0
LINE
  8
0
 62
     0
 10
74.9307
 20
120.603
 30
0.0
 11
75.1678
 21
120.446
 31
0.0
  0
LINE
  8
0
 62
     0
 10
75.1678
 20
120.446
 30
0.0
 11
75.4133
 21
120.308
 31
0.0
  0
LINE
  8
0
 62
     0
 10
75.4133
 20
120.308
 30
0.0
 11
75.6708
 21
120.191
 31
0.0
  0
LINE
  8
0
 62
     0
 10
75.6708
 20
120.191
 30
0.0
 11
75.9354
 21
120.093
 31
0.0
  0
LINE
  8
0
 62
     0
 10
75.9354
 20
120.093
 30
0.0
 11
76.2071
 21
120.016
 31
0.0
  0
LINE
  8
0
 62
     0
 10
76.2071
 20
120.016
 30
0.0
 11
76.484
 21
119.961
 31
0.0
  0
LINE
  8
0
 62
     0
 10
76.484
 20
119.961
 30
0.0
 11
76.7652
 21
119.928
 31
0.0
  0
LINE
  8
0
 62
     0
 10
76.7652
 20
119.928
 30
0.0
 11
77.0488
 21
119.916
 31
0.0
  0
LINE
  8
0
 62
     0
 10
77.0488
 20
119.916
 30
0.0
 11
77.3299
 21
119.928
 31
0.0
  0
LINE
  8
0
 62
     0
 10
77.3299
 20
119.928
 30
0.0
 11
77.6111
 21
119.961
 31
0.0
  0
LINE
  8
0
 62
     0
 10
77.6111
 20
119.961
 30
0.0
 11
77.888
 21
120.016
 31
0.0
  0
LINE
  8
0
 62
     0
 10
77.888
 20
120.016
 30
0.0
 11
78.1611
 21
120.093
 31
0.0
  0
LINE
  8
0
 62
     0
 10
78.1611
 20
120.093
 30
0.0
 11
78.4257
 21
120.191
 31
0.0
  0
LINE
  8
0
 62
     0
 10
78.4257
 20
120.191
 30
0.0
 11
78.6818
 21
120.308
 31
0.0
  0
LINE
  8
0
 62
     0
 10
78.6818
 20
120.308
 30
0.0
 11
78.9284
 21
120.446
 31
0.0
  0
LINE
  8
0
 62
     0
 10
78.9284
 20
120.446
 30
0.0
 11
79.164
 21
120.603
 31
0.0
  0
LINE
  8
0
 62
     0
 10
79.164
 20
120.603
 30
0.0
 11
79.3859
 21
120.778
 31
0.0
  0
LINE
  8
0
 62
     0
 10
79.3859
 20
120.778
 30
0.0
 11
79.5941
 21
120.971
 31
0.0
  0
LINE
  8
0
 62
     0
 10
79.5941
 20
120.971
 30
0.0
 11
79.7856
 21
121.178
 31
0.0
  0
LINE
  8
0
 62
     0
 10
79.7856
 20
121.178
 30
0.0
 11
79.9606
 21
121.4
 31
0.0
  0
LINE
  8
0
 62
     0
 10
79.9606
 20
121.4
 30
0.0
 11
80.1176
 21
121.635
 31
0.0
  0
LINE
  8
0
 62
     0
 10
80.1176
 20
121.635
 30
0.0
 11
80.2555
 21
121.882
 31
0.0
  0
LINE
  8
0
 62
     0
 10
80.2555
 20
121.882
 30
0.0
 11
80.3741
 21
122.138
 31
0.0
  0
LINE
  8
0
 62
     0
 10
80.3741
 20
122.138
 30
0.0
 11
80.4718
 21
122.404
 31
0.0
  0
LINE
  8
0
 62
     0
 10
80.4718
 20
122.404
 30
0.0
 11
80.549
 21
122.676
 31
0.0
  0
LINE
  8
0
 62
     0
 10
80.549
 20
122.676
 30
0.0
 11
80.6027
 21
122.953
 31
0.0
  0
LINE
  8
0
 62
     0
 10
80.6027
 20
122.953
 30
0.0
 11
80.6358
 21
123.234
 31
0.0
  0
LINE
  8
0
 62
     0
 10
80.6358
 20
123.234
 30
0.0
 11
80.6482
 21
123.515
 31
0.0
  0
LINE
  8
0
 62
     0
 10
80.6482
 20
123.515
 30
0.0
 11
80.6358
 21
123.799
 31
0.0
  0
LINE
  8
0
 62
     0
 10
80.6358
 20
123.799
 30
0.0
 11
80.6027
 21
124.08
 31
0.0
  0
LINE
  8
0
 62
     0
 10
80.6027
 20
124.08
 30
0.0
 11
80.549
 21
124.357
 31
0.0
  0
LINE
  8
0
 62
     0
 10
80.549
 20
124.357
 30
0.0
 11
80.4718
 21
124.628
 31
0.0
  0
LINE
  8
0
 62
     0
 10
80.4718
 20
124.628
 30
0.0
 11
80.3741
 21
124.893
 31
0.0
  0
LINE
  8
0
 62
     0
 10
80.3741
 20
124.893
 30
0.0
 11
80.2555
 21
125.151
 31
0.0
  0
LINE
  8
0
 62
     0
 10
80.2555
 20
125.151
 30
0.0
 11
80.1176
 21
125.396
 31
0.0
  0
LINE
  8
0
 62
     0
 10
80.1176
 20
125.396
 30
0.0
 11
79.9606
 21
125.633
 31
0.0
  0
LINE
  8
0
 62
     0
 10
79.9606
 20
125.633
 30
0.0
 11
79.7856
 21
125.855
 31
0.0
  0
LINE
  8
0
 62
     0
 10
79.7856
 20
125.855
 30
0.0
 11
79.5941
 21
126.062
 31
0.0
  0
LINE
  8
0
 62
     0
 10
79.5941
 20
126.062
 30
0.0
 11
79.3859
 21
126.253
 31
0.0
  0
LINE
  8
0
 62
     0
 10
79.3859
 20
126.253
 30
0.0
 11
79.164
 21
126.428
 31
0.0
  0
LINE
  8
0
 62
     0
 10
79.164
 20
126.428
 30
0.0
 11
78.9284
 21
126.585
 31
0.0
  0
LINE
  8
0
 62
     0
 10
78.9284
 20
126.585
 30
0.0
 11
78.6818
 21
126.723
 31
0.0
  0
LINE
  8
0
 62
     0
 10
78.6818
 20
126.723
 30
0.0
 11
78.4257
 21
126.842
 31
0.0
  0
LINE
  8
0
 62
     0
 10
78.4257
 20
126.842
 30
0.0
 11
78.1611
 21
126.939
 31
0.0
  0
LINE
  8
0
 62
     0
 10
78.1611
 20
126.939
 30
0.0
 11
77.888
 21
127.017
 31
0.0
  0
LINE
  8
0
 62
     0
 10
77.888
 20
127.017
 30
0.0
 11
77.6111
 21
127.072
 31
0.0
  0
LINE
  8
0
 62
     0
 10
77.6111
 20
127.072
 30
0.0
 11
77.3299
 21
127.105
 31
0.0
  0
LINE
  8
0
 62
     0
 10
77.3299
 20
127.105
 30
0.0
 11
77.0488
 21
127.116
 31
0.0
  0
LINE
  8
0
 62
     0
 10
77.0488
 20
127.116
 30
0.0
 11
76.7652
 21
127.105
 31
0.0
  0
LINE
  8
0
 62
     0
 10
110.016
 20
137.609
 30
0.0
 11
109.467
 21
137.331
 31
0.0
  0
LINE
  8
0
 62
     0
 10
109.467
 20
137.331
 30
0.0
 11
109.032
 21
136.894
 31
0.0
  0
LINE
  8
0
 62
     0
 10
109.032
 20
136.894
 30
0.0
 11
108.752
 21
136.347
 31
0.0
  0
LINE
  8
0
 62
     0
 10
108.752
 20
136.347
 30
0.0
 11
108.657
 21
135.738
 31
0.0
  0
LINE
  8
0
 62
     0
 10
108.657
 20
135.738
 30
0.0
 11
108.752
 21
135.13
 31
0.0
  0
LINE
  8
0
 62
     0
 10
108.752
 20
135.13
 30
0.0
 11
109.032
 21
134.582
 31
0.0
  0
LINE
  8
0
 62
     0
 10
109.032
 20
134.582
 30
0.0
 11
109.467
 21
134.147
 31
0.0
  0
LINE
  8
0
 62
     0
 10
109.467
 20
134.147
 30
0.0
 11
110.016
 21
133.868
 31
0.0
  0
LINE
  8
0
 62
     0
 10
110.016
 20
133.868
 30
0.0
 11
110.623
 21
133.77
 31
0.0
  0
LINE
  8
0
 62
     0
 10
110.623
 20
133.77
 30
0.0
 11
111.231
 21
133.868
 31
0.0
  0
LINE
  8
0
 62
     0
 10
111.231
 20
133.868
 30
0.0
 11
111.779
 21
134.147
 31
0.0
  0
LINE
  8
0
 62
     0
 10
111.779
 20
134.147
 30
0.0
 11
112.215
 21
134.582
 31
0.0
  0
LINE
  8
0
 62
     0
 10
112.215
 20
134.582
 30
0.0
 11
112.495
 21
135.13
 31
0.0
  0
LINE
  8
0
 62
     0
 10
112.495
 20
135.13
 30
0.0
 11
112.591
 21
135.738
 31
0.0
  0
LINE
  8
0
 62
     0
 10
112.591
 20
135.738
 30
0.0
 11
112.495
 21
136.347
 31
0.0
  0
LINE
  8
0
 62
     0
 10
112.495
 20
136.347
 30
0.0
 11
112.215
 21
136.894
 31
0.0
  0
LINE
  8
0
 62
     0
 10
112.215
 20
136.894
 30
0.0
 11
111.779
 21
137.331
 31
0.0
  0
LINE
  8
0
 62
     0
 10
111.779
 20
137.331
 30
0.0
 11
111.231
 21
137.609
 31
0.0
  0
LINE
  8
0
 62
     0
 10
111.231
 20
137.609
 30
0.0
 11
110.623
 21
137.706
 31
0.0
  0
LINE
  8
0
 62
     0
 10
110.623
 20
137.706
 30
0.0
 11
110.016
 21
137.609
 31
0.0
  0
LINE
  8
0
 62
     0
 10
4.76388
 20
137.609
 30
0.0
 11
4.21679
 21
137.331
 31
0.0
  0
LINE
  8
0
 62
     0
 10
4.21679
 20
137.331
 30
0.0
 11
3.77994
 21
136.894
 31
0.0
  0
LINE
  8
0
 62
     0
 10
3.77994
 20
136.894
 30
0.0
 11
3.50159
 21
136.347
 31
0.0
  0
LINE
  8
0
 62
     0
 10
3.50159
 20
136.347
 30
0.0
 11
3.40513
 21
135.738
 31
0.0
  0
LINE
  8
0
 62
     0
 10
3.40513
 20
135.738
 30
0.0
 11
3.50159
 21
135.13
 31
0.0
  0
LINE
  8
0
 62
     0
 10
3.50159
 20
135.13
 30
0.0
 11
3.77994
 21
134.582
 31
0.0
  0
LINE
  8
0
 62
     0
 10
3.77994
 20
134.582
 30
0.0
 11
4.21679
 21
134.147
 31
0.0
  0
LINE
  8
0
 62
     0
 10
4.21679
 20
134.147
 30
0.0
 11
4.76388
 21
133.868
 31
0.0
  0
LINE
  8
0
 62
     0
 10
4.76388
 20
133.868
 30
0.0
 11
5.37298
 21
133.77
 31
0.0
  0
LINE
  8
0
 62
     0
 10
5.37298
 20
133.77
 30
0.0
 11
5.98068
 21
133.868
 31
0.0
  0
LINE
  8
0
 62
     0
 10
5.98068
 20
133.868
 30
0.0
 11
6.52914
 21
134.147
 31
0.0
  0
LINE
  8
0
 62
     0
 10
6.52914
 20
134.147
 30
0.0
 11
6.96461
 21
134.582
 31
0.0
  0
LINE
  8
0
 62
     0
 10
6.96461
 20
134.582
 30
0.0
 11
7.24299
 21
135.13
 31
0.0
  0
LINE
  8
0
 62
     0
 10
7.24299
 20
135.13
 30
0.0
 11
7.34081
 21
135.738
 31
0.0
  0
LINE
  8
0
 62
     0
 10
7.34081
 20
135.738
 30
0.0
 11
7.24299
 21
136.347
 31
0.0
  0
LINE
  8
0
 62
     0
 10
7.24299
 20
136.347
 30
0.0
 11
6.96461
 21
136.894
 31
0.0
  0
LINE
  8
0
 62
     0
 10
6.96461
 20
136.894
 30
0.0
 11
6.52914
 21
137.331
 31
0.0
  0
LINE
  8
0
 62
     0
 10
6.52914
 20
137.331
 30
0.0
 11
5.98068
 21
137.609
 31
0.0
  0
LINE
  8
0
 62
     0
 10
5.98068
 20
137.609
 30
0.0
 11
5.37298
 21
137.706
 31
0.0
  0
LINE
  8
0
 62
     0
 10
5.37298
 20
137.706
 30
0.0
 11
4.76388
 21
137.609
 31
0.0
  0
ENDSEC
  0
EOF
