  0
SECTION
  2
HEADER
  9
$ACADVER
  1
AC1009
  9
$FILLMODE
 70
 0
  9
$SPLFRAME
 70
 1
  9
$EXTMIN
 10
0
 20
0
 30
0.0
  9
$EXTMAX
 10
1058.33
 20
1058.33
 30
0.0
  0
ENDSEC
  0
SECTION
  2
TABLES
  0
TABLE
  2
LAYER
 70
1
  0
LAYER
  2
0
 70
     0
 62
     7
  6
CONTINUOUS
  0
ENDTAB
  0
ENDSEC
  0
SECTION
  2
ENTITIES
  0
LINE
  8
0
 62
     0
 10
110.902
 20
141.016
 30
0.0
 11
111.293
 21
141.001
 31
0.0
  0
LINE
  8
0
 62
     0
 10
111.293
 20
141.001
 30
0.0
 11
111.683
 21
140.954
 31
0.0
  0
LINE
  8
0
 62
     0
 10
111.683
 20
140.954
 30
0.0
 11
112.069
 21
140.878
 31
0.0
  0
LINE
  8
0
 62
     0
 10
112.069
 20
140.878
 30
0.0
 11
112.447
 21
140.772
 31
0.0
  0
LINE
  8
0
 62
     0
 10
112.447
 20
140.772
 30
0.0
 11
112.814
 21
140.636
 31
0.0
  0
LINE
  8
0
 62
     0
 10
112.814
 20
140.636
 30
0.0
 11
113.17
 21
140.472
 31
0.0
  0
LINE
  8
0
 62
     0
 10
113.17
 20
140.472
 30
0.0
 11
113.513
 21
140.28
 31
0.0
  0
LINE
  8
0
 62
     0
 10
113.513
 20
140.28
 30
0.0
 11
113.84
 21
140.061
 31
0.0
  0
LINE
  8
0
 62
     0
 10
113.84
 20
140.061
 30
0.0
 11
114.148
 21
139.819
 31
0.0
  0
LINE
  8
0
 62
     0
 10
114.148
 20
139.819
 30
0.0
 11
114.437
 21
139.551
 31
0.0
  0
LINE
  8
0
 62
     0
 10
114.437
 20
139.551
 30
0.0
 11
114.704
 21
139.263
 31
0.0
  0
LINE
  8
0
 62
     0
 10
114.704
 20
139.263
 30
0.0
 11
114.946
 21
138.955
 31
0.0
  0
LINE
  8
0
 62
     0
 10
114.946
 20
138.955
 30
0.0
 11
115.164
 21
138.629
 31
0.0
  0
LINE
  8
0
 62
     0
 10
115.164
 20
138.629
 30
0.0
 11
115.357
 21
138.286
 31
0.0
  0
LINE
  8
0
 62
     0
 10
115.357
 20
138.286
 30
0.0
 11
115.521
 21
137.929
 31
0.0
  0
LINE
  8
0
 62
     0
 10
115.521
 20
137.929
 30
0.0
 11
115.656
 21
137.561
 31
0.0
  0
LINE
  8
0
 62
     0
 10
115.656
 20
137.561
 30
0.0
 11
115.762
 21
137.184
 31
0.0
  0
LINE
  8
0
 62
     0
 10
115.762
 20
137.184
 30
0.0
 11
115.839
 21
136.799
 31
0.0
  0
LINE
  8
0
 62
     0
 10
115.839
 20
136.799
 30
0.0
 11
115.886
 21
136.409
 31
0.0
  0
LINE
  8
0
 62
     0
 10
115.886
 20
136.409
 30
0.0
 11
115.901
 21
136.015
 31
0.0
  0
LINE
  8
0
 62
     0
 10
115.901
 20
136.015
 30
0.0
 11
115.901
 21
5.20898
 31
0.0
  0
LINE
  8
0
 62
     0
 10
115.901
 20
5.20898
 30
0.0
 11
115.886
 21
4.81764
 31
0.0
  0
LINE
  8
0
 62
     0
 10
115.886
 20
4.81764
 30
0.0
 11
115.839
 21
4.42764
 31
0.0
  0
LINE
  8
0
 62
     0
 10
115.839
 20
4.42764
 30
0.0
 11
115.762
 21
4.04315
 31
0.0
  0
LINE
  8
0
 62
     0
 10
115.762
 20
4.04315
 30
0.0
 11
115.656
 21
3.6642
 31
0.0
  0
LINE
  8
0
 62
     0
 10
115.656
 20
3.6642
 30
0.0
 11
115.521
 21
3.29627
 31
0.0
  0
LINE
  8
0
 62
     0
 10
115.521
 20
3.29627
 30
0.0
 11
115.357
 21
2.94073
 31
0.0
  0
LINE
  8
0
 62
     0
 10
115.357
 20
2.94073
 30
0.0
 11
115.164
 21
2.5976
 31
0.0
  0
LINE
  8
0
 62
     0
 10
115.164
 20
2.5976
 30
0.0
 11
114.946
 21
2.27101
 31
0.0
  0
LINE
  8
0
 62
     0
 10
114.946
 20
2.27101
 30
0.0
 11
114.704
 21
1.96233
 31
0.0
  0
LINE
  8
0
 62
     0
 10
114.704
 20
1.96233
 30
0.0
 11
114.437
 21
1.67432
 31
0.0
  0
LINE
  8
0
 62
     0
 10
114.437
 20
1.67432
 30
0.0
 11
114.148
 21
1.40698
 31
0.0
  0
LINE
  8
0
 62
     0
 10
114.148
 20
1.40698
 30
0.0
 11
113.84
 21
1.16444
 31
0.0
  0
LINE
  8
0
 62
     0
 10
113.84
 20
1.16444
 30
0.0
 11
113.513
 21
0.946711
 31
0.0
  0
LINE
  8
0
 62
     0
 10
113.513
 20
0.946711
 30
0.0
 11
113.17
 21
0.755167
 31
0.0
  0
LINE
  8
0
 62
     0
 10
113.17
 20
0.755167
 30
0.0
 11
112.814
 21
0.591178
 31
0.0
  0
LINE
  8
0
 62
     0
 10
112.814
 20
0.591178
 30
0.0
 11
112.447
 21
0.454752
 31
0.0
  0
LINE
  8
0
 62
     0
 10
112.447
 20
0.454752
 30
0.0
 11
112.069
 21
0.348644
 31
0.0
  0
LINE
  8
0
 62
     0
 10
112.069
 20
0.348644
 30
0.0
 11
111.683
 21
0.271473
 31
0.0
  0
LINE
  8
0
 62
     0
 10
111.683
 20
0.271473
 30
0.0
 11
111.293
 21
0.225998
 31
0.0
  0
LINE
  8
0
 62
     0
 10
111.293
 20
0.225998
 30
0.0
 11
110.9
 21
0.209462
 31
0.0
  0
LINE
  8
0
 62
     0
 10
110.9
 20
0.209462
 30
0.0
 11
5.09598
 21
0.209462
 31
0.0
  0
LINE
  8
0
 62
     0
 10
5.09598
 20
0.209462
 30
0.0
 11
4.70186
 21
0.225998
 31
0.0
  0
LINE
  8
0
 62
     0
 10
4.70186
 20
0.225998
 30
0.0
 11
4.3119
 21
0.271473
 31
0.0
  0
LINE
  8
0
 62
     0
 10
4.3119
 20
0.271473
 30
0.0
 11
3.9274
 21
0.348644
 31
0.0
  0
LINE
  8
0
 62
     0
 10
3.9274
 20
0.348644
 30
0.0
 11
3.54983
 21
0.454752
 31
0.0
  0
LINE
  8
0
 62
     0
 10
3.54983
 20
0.454752
 30
0.0
 11
3.18189
 21
0.591178
 31
0.0
  0
LINE
  8
0
 62
     0
 10
3.18189
 20
0.591178
 30
0.0
 11
2.82498
 21
0.755167
 31
0.0
  0
LINE
  8
0
 62
     0
 10
2.82498
 20
0.755167
 30
0.0
 11
2.48185
 21
0.946711
 31
0.0
  0
LINE
  8
0
 62
     0
 10
2.48185
 20
0.946711
 30
0.0
 11
2.15663
 21
1.16444
 31
0.0
  0
LINE
  8
0
 62
     0
 10
2.15663
 20
1.16444
 30
0.0
 11
1.84795
 21
1.40698
 31
0.0
  0
LINE
  8
0
 62
     0
 10
1.84795
 20
1.40698
 30
0.0
 11
1.55994
 21
1.67432
 31
0.0
  0
LINE
  8
0
 62
     0
 10
1.55994
 20
1.67432
 30
0.0
 11
1.2926
 21
1.96233
 31
0.0
  0
LINE
  8
0
 62
     0
 10
1.2926
 20
1.96233
 30
0.0
 11
1.05006
 21
2.27101
 31
0.0
  0
LINE
  8
0
 62
     0
 10
1.05006
 20
2.27101
 30
0.0
 11
0.830957
 21
2.5976
 31
0.0
  0
LINE
  8
0
 62
     0
 10
0.830957
 20
2.5976
 30
0.0
 11
0.63941
 21
2.94073
 31
0.0
  0
LINE
  8
0
 62
     0
 10
0.63941
 20
2.94073
 30
0.0
 11
0.475424
 21
3.29627
 31
0.0
  0
LINE
  8
0
 62
     0
 10
0.475424
 20
3.29627
 30
0.0
 11
0.338998
 21
3.6642
 31
0.0
  0
LINE
  8
0
 62
     0
 10
0.338998
 20
3.6642
 30
0.0
 11
0.232888
 21
4.04315
 31
0.0
  0
LINE
  8
0
 62
     0
 10
0.232888
 20
4.04315
 30
0.0
 11
0.157097
 21
4.42764
 31
0.0
  0
LINE
  8
0
 62
     0
 10
0.157097
 20
4.42764
 30
0.0
 11
0.110243
 21
4.81764
 31
0.0
  0
LINE
  8
0
 62
     0
 10
0.110243
 20
4.81764
 30
0.0
 11
0.0950846
 21
5.21035
 31
0.0
  0
LINE
  8
0
 62
     0
 10
0.0950846
 20
5.21035
 30
0.0
 11
0.0950846
 21
136.015
 31
0.0
  0
LINE
  8
0
 62
     0
 10
0.0950846
 20
136.015
 30
0.0
 11
0.110243
 21
136.409
 31
0.0
  0
LINE
  8
0
 62
     0
 10
0.110243
 20
136.409
 30
0.0
 11
0.157097
 21
136.799
 31
0.0
  0
LINE
  8
0
 62
     0
 10
0.157097
 20
136.799
 30
0.0
 11
0.232888
 21
137.184
 31
0.0
  0
LINE
  8
0
 62
     0
 10
0.232888
 20
137.184
 30
0.0
 11
0.338998
 21
137.561
 31
0.0
  0
LINE
  8
0
 62
     0
 10
0.338998
 20
137.561
 30
0.0
 11
0.475424
 21
137.929
 31
0.0
  0
LINE
  8
0
 62
     0
 10
0.475424
 20
137.929
 30
0.0
 11
0.63941
 21
138.286
 31
0.0
  0
LINE
  8
0
 62
     0
 10
0.63941
 20
138.286
 30
0.0
 11
0.830957
 21
138.629
 31
0.0
  0
LINE
  8
0
 62
     0
 10
0.830957
 20
138.629
 30
0.0
 11
1.05006
 21
138.955
 31
0.0
  0
LINE
  8
0
 62
     0
 10
1.05006
 20
138.955
 30
0.0
 11
1.2926
 21
139.263
 31
0.0
  0
LINE
  8
0
 62
     0
 10
1.2926
 20
139.263
 30
0.0
 11
1.55994
 21
139.551
 31
0.0
  0
LINE
  8
0
 62
     0
 10
1.55994
 20
139.551
 30
0.0
 11
1.84795
 21
139.819
 31
0.0
  0
LINE
  8
0
 62
     0
 10
1.84795
 20
139.819
 30
0.0
 11
2.15663
 21
140.061
 31
0.0
  0
LINE
  8
0
 62
     0
 10
2.15663
 20
140.061
 30
0.0
 11
2.48185
 21
140.28
 31
0.0
  0
LINE
  8
0
 62
     0
 10
2.48185
 20
140.28
 30
0.0
 11
2.82498
 21
140.472
 31
0.0
  0
LINE
  8
0
 62
     0
 10
2.82498
 20
140.472
 30
0.0
 11
3.18189
 21
140.636
 31
0.0
  0
LINE
  8
0
 62
     0
 10
3.18189
 20
140.636
 30
0.0
 11
3.54983
 21
140.772
 31
0.0
  0
LINE
  8
0
 62
     0
 10
3.54983
 20
140.772
 30
0.0
 11
3.9274
 21
140.878
 31
0.0
  0
LINE
  8
0
 62
     0
 10
3.9274
 20
140.878
 30
0.0
 11
4.3119
 21
140.954
 31
0.0
  0
LINE
  8
0
 62
     0
 10
4.3119
 20
140.954
 30
0.0
 11
4.70186
 21
141.001
 31
0.0
  0
LINE
  8
0
 62
     0
 10
4.70186
 20
141.001
 30
0.0
 11
5.09598
 21
141.016
 31
0.0
  0
LINE
  8
0
 62
     0
 10
5.09598
 20
141.016
 30
0.0
 11
110.902
 21
141.016
 31
0.0
  0
LINE
  8
0
 62
     0
 10
110.016
 20
7.35873
 30
0.0
 11
109.467
 21
7.07898
 31
0.0
  0
LINE
  8
0
 62
     0
 10
109.467
 20
7.07898
 30
0.0
 11
109.032
 21
6.64351
 31
0.0
  0
LINE
  8
0
 62
     0
 10
109.032
 20
6.64351
 30
0.0
 11
108.752
 21
6.09505
 31
0.0
  0
LINE
  8
0
 62
     0
 10
108.752
 20
6.09505
 30
0.0
 11
108.657
 21
5.48735
 31
0.0
  0
LINE
  8
0
 62
     0
 10
108.657
 20
5.48735
 30
0.0
 11
108.752
 21
4.87962
 31
0.0
  0
LINE
  8
0
 62
     0
 10
108.752
 20
4.87962
 30
0.0
 11
109.032
 21
4.33116
 31
0.0
  0
LINE
  8
0
 62
     0
 10
109.032
 20
4.33116
 30
0.0
 11
109.467
 21
3.89573
 31
0.0
  0
LINE
  8
0
 62
     0
 10
109.467
 20
3.89573
 30
0.0
 11
110.016
 21
3.61597
 31
0.0
  0
LINE
  8
0
 62
     0
 10
110.016
 20
3.61597
 30
0.0
 11
110.623
 21
3.51951
 31
0.0
  0
LINE
  8
0
 62
     0
 10
110.623
 20
3.51951
 30
0.0
 11
111.231
 21
3.61597
 31
0.0
  0
LINE
  8
0
 62
     0
 10
111.231
 20
3.61597
 30
0.0
 11
111.779
 21
3.89573
 31
0.0
  0
LINE
  8
0
 62
     0
 10
111.779
 20
3.89573
 30
0.0
 11
112.215
 21
4.33116
 31
0.0
  0
LINE
  8
0
 62
     0
 10
112.215
 20
4.33116
 30
0.0
 11
112.495
 21
4.87962
 31
0.0
  0
LINE
  8
0
 62
     0
 10
112.495
 20
4.87962
 30
0.0
 11
112.591
 21
5.48735
 31
0.0
  0
LINE
  8
0
 62
     0
 10
112.591
 20
5.48735
 30
0.0
 11
112.495
 21
6.09505
 31
0.0
  0
LINE
  8
0
 62
     0
 10
112.495
 20
6.09505
 30
0.0
 11
112.215
 21
6.64351
 31
0.0
  0
LINE
  8
0
 62
     0
 10
112.215
 20
6.64351
 30
0.0
 11
111.779
 21
7.07898
 31
0.0
  0
LINE
  8
0
 62
     0
 10
111.779
 20
7.07898
 30
0.0
 11
111.231
 21
7.35873
 31
0.0
  0
LINE
  8
0
 62
     0
 10
111.231
 20
7.35873
 30
0.0
 11
110.623
 21
7.45518
 31
0.0
  0
LINE
  8
0
 62
     0
 10
110.623
 20
7.45518
 30
0.0
 11
110.016
 21
7.35873
 31
0.0
  0
LINE
  8
0
 62
     0
 10
4.76388
 20
7.35873
 30
0.0
 11
4.21679
 21
7.07898
 31
0.0
  0
LINE
  8
0
 62
     0
 10
4.21679
 20
7.07898
 30
0.0
 11
3.77994
 21
6.64351
 31
0.0
  0
LINE
  8
0
 62
     0
 10
3.77994
 20
6.64351
 30
0.0
 11
3.50159
 21
6.09505
 31
0.0
  0
LINE
  8
0
 62
     0
 10
3.50159
 20
6.09505
 30
0.0
 11
3.40513
 21
5.48735
 31
0.0
  0
LINE
  8
0
 62
     0
 10
3.40513
 20
5.48735
 30
0.0
 11
3.50159
 21
4.87962
 31
0.0
  0
LINE
  8
0
 62
     0
 10
3.50159
 20
4.87962
 30
0.0
 11
3.77994
 21
4.33116
 31
0.0
  0
LINE
  8
0
 62
     0
 10
3.77994
 20
4.33116
 30
0.0
 11
4.21679
 21
3.89573
 31
0.0
  0
LINE
  8
0
 62
     0
 10
4.21679
 20
3.89573
 30
0.0
 11
4.76388
 21
3.61597
 31
0.0
  0
LINE
  8
0
 62
     0
 10
4.76388
 20
3.61597
 30
0.0
 11
5.37298
 21
3.51951
 31
0.0
  0
LINE
  8
0
 62
     0
 10
5.37298
 20
3.51951
 30
0.0
 11
5.98068
 21
3.61597
 31
0.0
  0
LINE
  8
0
 62
     0
 10
5.98068
 20
3.61597
 30
0.0
 11
6.52914
 21
3.89573
 31
0.0
  0
LINE
  8
0
 62
     0
 10
6.52914
 20
3.89573
 30
0.0
 11
6.96461
 21
4.33116
 31
0.0
  0
LINE
  8
0
 62
     0
 10
6.96461
 20
4.33116
 30
0.0
 11
7.24299
 21
4.87962
 31
0.0
  0
LINE
  8
0
 62
     0
 10
7.24299
 20
4.87962
 30
0.0
 11
7.34081
 21
5.48735
 31
0.0
  0
LINE
  8
0
 62
     0
 10
7.34081
 20
5.48735
 30
0.0
 11
7.24299
 21
6.09505
 31
0.0
  0
LINE
  8
0
 62
     0
 10
7.24299
 20
6.09505
 30
0.0
 11
6.96461
 21
6.64351
 31
0.0
  0
LINE
  8
0
 62
     0
 10
6.96461
 20
6.64351
 30
0.0
 11
6.52914
 21
7.07898
 31
0.0
  0
LINE
  8
0
 62
     0
 10
6.52914
 20
7.07898
 30
0.0
 11
5.98068
 21
7.35873
 31
0.0
  0
LINE
  8
0
 62
     0
 10
5.98068
 20
7.35873
 30
0.0
 11
5.37298
 21
7.45518
 31
0.0
  0
LINE
  8
0
 62
     0
 10
5.37298
 20
7.45518
 30
0.0
 11
4.76388
 21
7.35873
 31
0.0
  0
LINE
  8
0
 62
     0
 10
110.016
 20
137.609
 30
0.0
 11
109.467
 21
137.331
 31
0.0
  0
LINE
  8
0
 62
     0
 10
109.467
 20
137.331
 30
0.0
 11
109.032
 21
136.894
 31
0.0
  0
LINE
  8
0
 62
     0
 10
109.032
 20
136.894
 30
0.0
 11
108.752
 21
136.347
 31
0.0
  0
LINE
  8
0
 62
     0
 10
108.752
 20
136.347
 30
0.0
 11
108.657
 21
135.738
 31
0.0
  0
LINE
  8
0
 62
     0
 10
108.657
 20
135.738
 30
0.0
 11
108.752
 21
135.13
 31
0.0
  0
LINE
  8
0
 62
     0
 10
108.752
 20
135.13
 30
0.0
 11
109.032
 21
134.582
 31
0.0
  0
LINE
  8
0
 62
     0
 10
109.032
 20
134.582
 30
0.0
 11
109.467
 21
134.147
 31
0.0
  0
LINE
  8
0
 62
     0
 10
109.467
 20
134.147
 30
0.0
 11
110.016
 21
133.868
 31
0.0
  0
LINE
  8
0
 62
     0
 10
110.016
 20
133.868
 30
0.0
 11
110.623
 21
133.77
 31
0.0
  0
LINE
  8
0
 62
     0
 10
110.623
 20
133.77
 30
0.0
 11
111.231
 21
133.868
 31
0.0
  0
LINE
  8
0
 62
     0
 10
111.231
 20
133.868
 30
0.0
 11
111.779
 21
134.147
 31
0.0
  0
LINE
  8
0
 62
     0
 10
111.779
 20
134.147
 30
0.0
 11
112.215
 21
134.582
 31
0.0
  0
LINE
  8
0
 62
     0
 10
112.215
 20
134.582
 30
0.0
 11
112.495
 21
135.13
 31
0.0
  0
LINE
  8
0
 62
     0
 10
112.495
 20
135.13
 30
0.0
 11
112.591
 21
135.738
 31
0.0
  0
LINE
  8
0
 62
     0
 10
112.591
 20
135.738
 30
0.0
 11
112.495
 21
136.347
 31
0.0
  0
LINE
  8
0
 62
     0
 10
112.495
 20
136.347
 30
0.0
 11
112.215
 21
136.894
 31
0.0
  0
LINE
  8
0
 62
     0
 10
112.215
 20
136.894
 30
0.0
 11
111.779
 21
137.331
 31
0.0
  0
LINE
  8
0
 62
     0
 10
111.779
 20
137.331
 30
0.0
 11
111.231
 21
137.609
 31
0.0
  0
LINE
  8
0
 62
     0
 10
111.231
 20
137.609
 30
0.0
 11
110.623
 21
137.706
 31
0.0
  0
LINE
  8
0
 62
     0
 10
110.623
 20
137.706
 30
0.0
 11
110.016
 21
137.609
 31
0.0
  0
LINE
  8
0
 62
     0
 10
4.76388
 20
137.609
 30
0.0
 11
4.21679
 21
137.331
 31
0.0
  0
LINE
  8
0
 62
     0
 10
4.21679
 20
137.331
 30
0.0
 11
3.77994
 21
136.894
 31
0.0
  0
LINE
  8
0
 62
     0
 10
3.77994
 20
136.894
 30
0.0
 11
3.50159
 21
136.347
 31
0.0
  0
LINE
  8
0
 62
     0
 10
3.50159
 20
136.347
 30
0.0
 11
3.40513
 21
135.738
 31
0.0
  0
LINE
  8
0
 62
     0
 10
3.40513
 20
135.738
 30
0.0
 11
3.50159
 21
135.13
 31
0.0
  0
LINE
  8
0
 62
     0
 10
3.50159
 20
135.13
 30
0.0
 11
3.77994
 21
134.582
 31
0.0
  0
LINE
  8
0
 62
     0
 10
3.77994
 20
134.582
 30
0.0
 11
4.21679
 21
134.147
 31
0.0
  0
LINE
  8
0
 62
     0
 10
4.21679
 20
134.147
 30
0.0
 11
4.76388
 21
133.868
 31
0.0
  0
LINE
  8
0
 62
     0
 10
4.76388
 20
133.868
 30
0.0
 11
5.37298
 21
133.77
 31
0.0
  0
LINE
  8
0
 62
     0
 10
5.37298
 20
133.77
 30
0.0
 11
5.98068
 21
133.868
 31
0.0
  0
LINE
  8
0
 62
     0
 10
5.98068
 20
133.868
 30
0.0
 11
6.52914
 21
134.147
 31
0.0
  0
LINE
  8
0
 62
     0
 10
6.52914
 20
134.147
 30
0.0
 11
6.96461
 21
134.582
 31
0.0
  0
LINE
  8
0
 62
     0
 10
6.96461
 20
134.582
 30
0.0
 11
7.24299
 21
135.13
 31
0.0
  0
LINE
  8
0
 62
     0
 10
7.24299
 20
135.13
 30
0.0
 11
7.34081
 21
135.738
 31
0.0
  0
LINE
  8
0
 62
     0
 10
7.34081
 20
135.738
 30
0.0
 11
7.24299
 21
136.347
 31
0.0
  0
LINE
  8
0
 62
     0
 10
7.24299
 20
136.347
 30
0.0
 11
6.96461
 21
136.894
 31
0.0
  0
LINE
  8
0
 62
     0
 10
6.96461
 20
136.894
 30
0.0
 11
6.52914
 21
137.331
 31
0.0
  0
LINE
  8
0
 62
     0
 10
6.52914
 20
137.331
 30
0.0
 11
5.98068
 21
137.609
 31
0.0
  0
LINE
  8
0
 62
     0
 10
5.98068
 20
137.609
 30
0.0
 11
5.37298
 21
137.706
 31
0.0
  0
LINE
  8
0
 62
     0
 10
5.37298
 20
137.706
 30
0.0
 11
4.76388
 21
137.609
 31
0.0
  0
ENDSEC
  0
EOF
